M48
; DRILL file {KiCad 9.0.6} date 2026-03-27T12:54:06-0500
; FORMAT={-:-/ absolute / metric / decimal}
; #@! TF.CreationDate,2026-03-27T12:54:06-05:00
; #@! TF.GenerationSoftware,Kicad,Pcbnew,9.0.6
; #@! TF.FileFunction,Plated,1,2,PTH
FMAT,2
METRIC
; #@! TA.AperFunction,Plated,PTH,ViaDrill
T1C0.300
; #@! TA.AperFunction,Plated,PTH,ComponentDrill
T2C0.600
; #@! TA.AperFunction,Plated,PTH,ComponentDrill
T3C1.000
%
G90
G05
T1
X143.0Y-106.29
X143.6Y-90.69
X144.0Y-107.28
X144.606Y-89.242
X144.825Y-104.175
X145.0Y-77.82
X145.224Y-89.842
X145.339Y-86.2
X145.772Y-90.425
X146.0Y-77.82
X146.0Y-93.399
X146.565Y-88.188
X146.889Y-89.852
X147.0Y-77.71
X147.2Y-98.2
X147.2Y-108.8
X147.338Y-95.9
X147.613Y-89.498
X147.737Y-90.824
X147.835Y-88.188
X148.4Y-77.82
X148.564Y-90.813
X148.598Y-89.496
X148.6Y-110.2
X149.4Y-98.4
X149.8Y-79.4
X149.8Y-106.25
X150.0Y-75.0
X150.4Y-104.0
X150.52Y-72.895
X151.0Y-101.4
X151.4Y-100.2
X151.8Y-78.0
X151.8Y-93.0
X152.1Y-112.55
X152.797Y-92.299
X154.2Y-78.0
T3
X138.41Y-67.77
X138.41Y-70.31
X138.41Y-72.85
X138.41Y-75.39
X138.41Y-77.93
X138.41Y-80.47
X138.41Y-83.01
X138.41Y-85.55
X138.41Y-88.09
X138.41Y-90.63
X138.41Y-93.17
X138.41Y-95.71
X138.41Y-98.25
X138.41Y-100.79
X138.41Y-103.33
X138.41Y-105.87
X138.41Y-108.41
X138.41Y-110.95
X138.41Y-113.49
X138.41Y-116.03
X144.62Y-115.85
X147.16Y-115.85
X149.7Y-115.85
X156.19Y-67.77
X156.19Y-70.31
X156.19Y-72.85
X156.19Y-75.39
X156.19Y-77.93
X156.19Y-80.47
X156.19Y-83.01
X156.19Y-85.55
X156.19Y-88.09
X156.19Y-90.63
X156.19Y-93.17
X156.19Y-95.71
X156.19Y-98.25
X156.19Y-100.79
X156.19Y-103.33
X156.19Y-105.87
X156.19Y-108.41
X156.19Y-110.95
X156.19Y-113.49
X156.19Y-116.03
T2
G00X142.95Y-68.1
M15
G01X142.95Y-67.5
M16
G05
G00X142.95Y-72.53
M15
G01X142.95Y-71.43
M16
G05
G00X151.59Y-68.1
M15
G01X151.59Y-67.5
M16
G05
G00X151.59Y-72.53
M15
G01X151.59Y-71.43
M16
G05
M30
