%TF.GenerationSoftware,KiCad,Pcbnew,9.0.6*%
%TF.CreationDate,2026-03-27T12:53:51-05:00*%
%TF.ProjectId,Custom Dev Board,43757374-6f6d-4204-9465-7620426f6172,rev?*%
%TF.SameCoordinates,Original*%
%TF.FileFunction,Soldermask,Bot*%
%TF.FilePolarity,Negative*%
%FSLAX46Y46*%
G04 Gerber Fmt 4.6, Leading zero omitted, Abs format (unit mm)*
G04 Created by KiCad (PCBNEW 9.0.6) date 2026-03-27 12:53:51*
%MOMM*%
%LPD*%
G01*
G04 APERTURE LIST*
%ADD10R,1.700000X1.700000*%
%ADD11C,1.700000*%
%ADD12C,0.650000*%
%ADD13O,1.000000X2.100000*%
%ADD14O,1.000000X1.600000*%
G04 APERTURE END LIST*
D10*
%TO.C,J2*%
X138410000Y-67770000D03*
D11*
X138410000Y-70310000D03*
X138410000Y-72850000D03*
X138410000Y-75390000D03*
X138410000Y-77930000D03*
X138410000Y-80470000D03*
X138410000Y-83010000D03*
X138410000Y-85550000D03*
X138410000Y-88090000D03*
X138410000Y-90630000D03*
X138410000Y-93170000D03*
X138410000Y-95710000D03*
X138410000Y-98250000D03*
X138410000Y-100790000D03*
X138410000Y-103330000D03*
X138410000Y-105870000D03*
X138410000Y-108410000D03*
X138410000Y-110950000D03*
X138410000Y-113490000D03*
X138410000Y-116030000D03*
%TD*%
D12*
%TO.C,J1*%
X150160000Y-71450000D03*
X144380000Y-71450000D03*
D13*
X151590000Y-71980000D03*
D14*
X151590000Y-67800000D03*
D13*
X142950000Y-71980000D03*
D14*
X142950000Y-67800000D03*
%TD*%
D10*
%TO.C,J4*%
X144620000Y-115850000D03*
D11*
X147160000Y-115850000D03*
X149700000Y-115850000D03*
%TD*%
%TO.C,J3*%
X156190000Y-116030000D03*
X156190000Y-113490000D03*
X156190000Y-110950000D03*
X156190000Y-108410000D03*
X156190000Y-105870000D03*
X156190000Y-103330000D03*
X156190000Y-100790000D03*
X156190000Y-98250000D03*
X156190000Y-95710000D03*
X156190000Y-93170000D03*
X156190000Y-90630000D03*
X156190000Y-88090000D03*
X156190000Y-85550000D03*
X156190000Y-83010000D03*
X156190000Y-80470000D03*
X156190000Y-77930000D03*
X156190000Y-75390000D03*
X156190000Y-72850000D03*
X156190000Y-70310000D03*
D10*
X156190000Y-67770000D03*
%TD*%
M02*
