%TF.GenerationSoftware,KiCad,Pcbnew,9.0.6*%
%TF.CreationDate,2026-03-27T12:53:51-05:00*%
%TF.ProjectId,Custom Dev Board,43757374-6f6d-4204-9465-7620426f6172,rev?*%
%TF.SameCoordinates,Original*%
%TF.FileFunction,Copper,L2,Bot*%
%TF.FilePolarity,Positive*%
%FSLAX46Y46*%
G04 Gerber Fmt 4.6, Leading zero omitted, Abs format (unit mm)*
G04 Created by KiCad (PCBNEW 9.0.6) date 2026-03-27 12:53:51*
%MOMM*%
%LPD*%
G01*
G04 APERTURE LIST*
%TA.AperFunction,ComponentPad*%
%ADD10R,1.700000X1.700000*%
%TD*%
%TA.AperFunction,ComponentPad*%
%ADD11C,1.700000*%
%TD*%
%TA.AperFunction,HeatsinkPad*%
%ADD12O,1.000000X2.100000*%
%TD*%
%TA.AperFunction,HeatsinkPad*%
%ADD13O,1.000000X1.600000*%
%TD*%
%TA.AperFunction,ViaPad*%
%ADD14C,0.600000*%
%TD*%
%TA.AperFunction,Conductor*%
%ADD15C,0.200000*%
%TD*%
G04 APERTURE END LIST*
D10*
%TO.P,J2,1,Pin_1*%
%TO.N,GPIO0*%
X138410000Y-67770000D03*
D11*
%TO.P,J2,2,Pin_2*%
%TO.N,GPIO1*%
X138410000Y-70310000D03*
%TO.P,J2,3,Pin_3*%
%TO.N,GND*%
X138410000Y-72850000D03*
%TO.P,J2,4,Pin_4*%
%TO.N,GPIO2*%
X138410000Y-75390000D03*
%TO.P,J2,5,Pin_5*%
%TO.N,GPIO3*%
X138410000Y-77930000D03*
%TO.P,J2,6,Pin_6*%
%TO.N,GPIO4*%
X138410000Y-80470000D03*
%TO.P,J2,7,Pin_7*%
%TO.N,GPIO5*%
X138410000Y-83010000D03*
%TO.P,J2,8,Pin_8*%
%TO.N,GND*%
X138410000Y-85550000D03*
%TO.P,J2,9,Pin_9*%
%TO.N,GPIO6*%
X138410000Y-88090000D03*
%TO.P,J2,10,Pin_10*%
%TO.N,GPIO7*%
X138410000Y-90630000D03*
%TO.P,J2,11,Pin_11*%
%TO.N,GPIO8*%
X138410000Y-93170000D03*
%TO.P,J2,12,Pin_12*%
%TO.N,GPIO9*%
X138410000Y-95710000D03*
%TO.P,J2,13,Pin_13*%
%TO.N,GND*%
X138410000Y-98250000D03*
%TO.P,J2,14,Pin_14*%
%TO.N,GPIO10*%
X138410000Y-100790000D03*
%TO.P,J2,15,Pin_15*%
%TO.N,GPIO11*%
X138410000Y-103330000D03*
%TO.P,J2,16,Pin_16*%
%TO.N,GPIO12*%
X138410000Y-105870000D03*
%TO.P,J2,17,Pin_17*%
%TO.N,GPIO13*%
X138410000Y-108410000D03*
%TO.P,J2,18,Pin_18*%
%TO.N,GND*%
X138410000Y-110950000D03*
%TO.P,J2,19,Pin_19*%
%TO.N,GPIO14*%
X138410000Y-113490000D03*
%TO.P,J2,20,Pin_20*%
%TO.N,GPIO15*%
X138410000Y-116030000D03*
%TD*%
D12*
%TO.P,J1,S1,SHIELD*%
%TO.N,GND*%
X151590000Y-71980000D03*
D13*
X151590000Y-67800000D03*
D12*
X142950000Y-71980000D03*
D13*
X142950000Y-67800000D03*
%TD*%
D10*
%TO.P,J4,1,Pin_1*%
%TO.N,SWCLK*%
X144620000Y-115850000D03*
D11*
%TO.P,J4,2,Pin_2*%
%TO.N,GND*%
X147160000Y-115850000D03*
%TO.P,J4,3,Pin_3*%
%TO.N,SWD*%
X149700000Y-115850000D03*
%TD*%
%TO.P,J3,20,Pin_20*%
%TO.N,GPIO16*%
X156190000Y-116030000D03*
%TO.P,J3,19,Pin_19*%
%TO.N,GPIO17*%
X156190000Y-113490000D03*
%TO.P,J3,18,Pin_18*%
%TO.N,Net-(J3-Pin_13)*%
X156190000Y-110950000D03*
%TO.P,J3,17,Pin_17*%
%TO.N,GPIO18*%
X156190000Y-108410000D03*
%TO.P,J3,16,Pin_16*%
%TO.N,GPIO19*%
X156190000Y-105870000D03*
%TO.P,J3,15,Pin_15*%
%TO.N,GPIO20*%
X156190000Y-103330000D03*
%TO.P,J3,14,Pin_14*%
%TO.N,GPIO21*%
X156190000Y-100790000D03*
%TO.P,J3,13,Pin_13*%
%TO.N,Net-(J3-Pin_13)*%
X156190000Y-98250000D03*
%TO.P,J3,12,Pin_12*%
%TO.N,GPIO22*%
X156190000Y-95710000D03*
%TO.P,J3,11,Pin_11*%
%TO.N,RUN*%
X156190000Y-93170000D03*
%TO.P,J3,10,Pin_10*%
%TO.N,GPIO23*%
X156190000Y-90630000D03*
%TO.P,J3,9,Pin_9*%
%TO.N,GPIO24*%
X156190000Y-88090000D03*
%TO.P,J3,8,Pin_8*%
%TO.N,Net-(J3-Pin_13)*%
X156190000Y-85550000D03*
%TO.P,J3,7,Pin_7*%
%TO.N,GPIO26_ADC0*%
X156190000Y-83010000D03*
%TO.P,J3,6,Pin_6*%
%TO.N,GPIO27_ADC1*%
X156190000Y-80470000D03*
%TO.P,J3,5,Pin_5*%
%TO.N,GPIO28_ADC2*%
X156190000Y-77930000D03*
%TO.P,J3,4,Pin_4*%
X156190000Y-75390000D03*
%TO.P,J3,3,Pin_3*%
%TO.N,Net-(J3-Pin_13)*%
X156190000Y-72850000D03*
%TO.P,J3,2,Pin_2*%
%TO.N,GPIO29_ADC3*%
X156190000Y-70310000D03*
D10*
%TO.P,J3,1,Pin_1*%
%TO.N,VBUS*%
X156190000Y-67770000D03*
%TD*%
D14*
%TO.N,GND*%
X150520000Y-72895000D03*
X147200000Y-108800000D03*
X149800000Y-79400000D03*
X148400000Y-77820000D03*
%TO.N,+1V1*%
X146889044Y-89852383D03*
%TO.N,RUN*%
X152797000Y-92298529D03*
X151800000Y-93000000D03*
X151400000Y-100200000D03*
X151000000Y-101400000D03*
X150400000Y-104000000D03*
%TO.N,GND*%
X148600000Y-110200000D03*
X147337500Y-95900000D03*
X144825000Y-104175000D03*
X145000000Y-77820000D03*
X144000000Y-107280000D03*
%TO.N,+1V1*%
X149400000Y-98400000D03*
X145339000Y-86200000D03*
%TO.N,QSPI_SD0*%
X146000000Y-93399000D03*
X148598000Y-89495502D03*
%TO.N,QSPI_SD2*%
X147835000Y-88187500D03*
%TO.N,QSPI_SS*%
X143600000Y-90690000D03*
X143000000Y-106290000D03*
%TO.N,QSPI_SCLK*%
X147613054Y-89498110D03*
X145772113Y-90425198D03*
%TO.N,QSPI_SD2*%
X145224265Y-89842218D03*
%TO.N,QSPI_SD1*%
X146565000Y-88187500D03*
X144606311Y-89242218D03*
%TO.N,Net-(U1-USB_DP)*%
X146000000Y-77820000D03*
X147737500Y-90824265D03*
%TO.N,Net-(U1-USB_DM)*%
X147000000Y-77710000D03*
X148564103Y-90812632D03*
%TO.N,VBUS*%
X150000000Y-75000000D03*
X152100000Y-112550000D03*
%TO.N,GPIO28_ADC2*%
X147200000Y-98200000D03*
X149800000Y-106250000D03*
X154200000Y-78000000D03*
X151800000Y-78000000D03*
%TD*%
D15*
%TO.N,GND*%
X148600000Y-110200000D02*
X147200000Y-108800000D01*
X148400000Y-78000000D02*
X149800000Y-79400000D01*
X148400000Y-77820000D02*
X148400000Y-78000000D01*
%TO.N,QSPI_SCLK*%
X145772113Y-90114587D02*
X145772113Y-90425198D01*
X146686700Y-89200000D02*
X145772113Y-90114587D01*
%TO.N,+1V1*%
X146889044Y-90255678D02*
X146889044Y-89852383D01*
X146118524Y-91026198D02*
X146889044Y-90255678D01*
X145424198Y-91026198D02*
X146118524Y-91026198D01*
X145399000Y-91001000D02*
X145424198Y-91026198D01*
%TO.N,QSPI_SCLK*%
X146686700Y-89200000D02*
X147314944Y-89200000D01*
X147314944Y-89200000D02*
X147613054Y-89498110D01*
%TO.N,+1V1*%
X145114150Y-90716150D02*
X145114150Y-90600000D01*
X145399000Y-91001000D02*
X145114150Y-90716150D01*
%TO.N,QSPI_SD0*%
X148598000Y-89602000D02*
X148598000Y-89495502D01*
X147736427Y-90223265D02*
X148149060Y-89810632D01*
X148149060Y-89810632D02*
X148389368Y-89810632D01*
X148389368Y-89810632D02*
X148598000Y-89602000D01*
X147488557Y-90223265D02*
X147736427Y-90223265D01*
X147136500Y-90823192D02*
X147136500Y-90575322D01*
X147136500Y-90575322D02*
X147488557Y-90223265D01*
X146000000Y-91959692D02*
X147136500Y-90823192D01*
X146000000Y-93399000D02*
X146000000Y-91959692D01*
%TO.N,+1V1*%
X149000000Y-98400000D02*
X149400000Y-98400000D01*
X148800000Y-98200000D02*
X149000000Y-98400000D01*
X145399000Y-95399000D02*
X148200000Y-98200000D01*
X148200000Y-98200000D02*
X148800000Y-98200000D01*
X145399000Y-91001000D02*
X145399000Y-95399000D01*
X144005311Y-89491161D02*
X145114150Y-90600000D01*
X144005311Y-87533689D02*
X144005311Y-89491161D01*
X145339000Y-86200000D02*
X144005311Y-87533689D01*
%TO.N,Net-(J3-Pin_13)*%
X153200000Y-88540000D02*
X156190000Y-85550000D01*
X153200000Y-90200000D02*
X153200000Y-88540000D01*
X153000000Y-90400000D02*
X153200000Y-90200000D01*
X153000000Y-91528429D02*
X153000000Y-90400000D01*
X152196000Y-92049586D02*
X152548057Y-91697529D01*
X152548057Y-91697529D02*
X152830900Y-91697529D01*
X152548057Y-92899529D02*
X152196000Y-92547472D01*
X152699529Y-92899529D02*
X152548057Y-92899529D01*
X153000000Y-93200000D02*
X152699529Y-92899529D01*
X153000000Y-95060000D02*
X153000000Y-93200000D01*
X156190000Y-98250000D02*
X153000000Y-95060000D01*
X152196000Y-92547472D02*
X152196000Y-92049586D01*
X152830900Y-91697529D02*
X153000000Y-91528429D01*
%TO.N,RUN*%
X152797000Y-92298529D02*
X153695529Y-91400000D01*
X153695529Y-91400000D02*
X154420000Y-91400000D01*
X154420000Y-91400000D02*
X156190000Y-93170000D01*
X151800000Y-93800000D02*
X151800000Y-93000000D01*
X151600000Y-94000000D02*
X151800000Y-93800000D01*
X151600000Y-100000000D02*
X151600000Y-94000000D01*
X151400000Y-100200000D02*
X151600000Y-100000000D01*
%TO.N,VBUS*%
X150600000Y-100400000D02*
X150600000Y-75600000D01*
X150999000Y-100799000D02*
X150600000Y-100400000D01*
X151601000Y-101401000D02*
X151601000Y-101151057D01*
X151601000Y-101151057D02*
X151248943Y-100799000D01*
X150600000Y-75600000D02*
X150000000Y-75000000D01*
X152100000Y-101900000D02*
X151601000Y-101401000D01*
X152100000Y-112550000D02*
X152100000Y-101900000D01*
X151248943Y-100799000D02*
X150999000Y-100799000D01*
%TO.N,RUN*%
X151000000Y-102000000D02*
X151000000Y-101400000D01*
X150400000Y-102600000D02*
X151000000Y-102000000D01*
X150400000Y-104000000D02*
X150400000Y-102600000D01*
%TO.N,GND*%
X147749943Y-95900000D02*
X147337500Y-95900000D01*
X149151057Y-99498886D02*
X150001000Y-98648943D01*
X150001000Y-98648943D02*
X150001000Y-98151057D01*
X150401000Y-106001057D02*
X149151057Y-104751114D01*
X149151057Y-104751114D02*
X149151057Y-99498886D01*
X150401000Y-106498943D02*
X150401000Y-106001057D01*
X150001000Y-98151057D02*
X147749943Y-95900000D01*
X150048943Y-106851000D02*
X150401000Y-106498943D01*
X147501000Y-106851000D02*
X150048943Y-106851000D01*
X144825000Y-104175000D02*
X147501000Y-106851000D01*
%TO.N,GPIO28_ADC2*%
X147551871Y-104001871D02*
X149800000Y-106250000D01*
X147200000Y-98200000D02*
X147551871Y-98551871D01*
X147551871Y-98551871D02*
X147551871Y-104001871D01*
%TO.N,QSPI_SD2*%
X147162235Y-88600000D02*
X147574735Y-88187500D01*
X147002443Y-88600000D02*
X147162235Y-88600000D01*
X146813943Y-88788500D02*
X147002443Y-88600000D01*
X146531100Y-88788500D02*
X146813943Y-88788500D01*
X145676382Y-89643218D02*
X146531100Y-88788500D01*
X145360317Y-89643218D02*
X145676382Y-89643218D01*
X145201768Y-89801767D02*
X145360317Y-89643218D01*
X145201768Y-89819721D02*
X145201768Y-89801767D01*
X145224265Y-89842218D02*
X145201768Y-89819721D01*
%TO.N,Net-(U1-USB_DP)*%
X146399000Y-77820000D02*
X146000000Y-77820000D01*
X146399000Y-77958943D02*
X146399000Y-77820000D01*
X146751057Y-78311000D02*
X146399000Y-77958943D01*
X149198000Y-80475100D02*
X147033900Y-78311000D01*
X148315160Y-90211632D02*
X148813046Y-90211632D01*
X147033900Y-78311000D02*
X146751057Y-78311000D01*
X147963103Y-90598662D02*
X147963103Y-90563689D01*
X147963103Y-90563689D02*
X148315160Y-90211632D01*
X148813046Y-90211632D02*
X149198000Y-89826678D01*
X147737500Y-90824265D02*
X147963103Y-90598662D01*
X149198000Y-89826678D02*
X149198000Y-80475100D01*
%TO.N,QSPI_SD1*%
X145510282Y-89242218D02*
X146565000Y-88187500D01*
X144606311Y-89242218D02*
X145510282Y-89242218D01*
%TO.N,Net-(U1-USB_DM)*%
X149599000Y-80309000D02*
X147000000Y-77710000D01*
X149599000Y-90501000D02*
X149599000Y-80309000D01*
X149287368Y-90812632D02*
X149599000Y-90501000D01*
X148564103Y-90812632D02*
X149287368Y-90812632D01*
%TO.N,QSPI_SS*%
X143000000Y-106290000D02*
X143000000Y-91290000D01*
X143000000Y-91290000D02*
X143600000Y-90690000D01*
%TO.N,GPIO28_ADC2*%
X151800000Y-78000000D02*
X154200000Y-78000000D01*
%TO.N,Net-(J3-Pin_13)*%
X155039000Y-74001000D02*
X156190000Y-72850000D01*
X155039000Y-84399000D02*
X155039000Y-74001000D01*
X156190000Y-85550000D02*
X155039000Y-84399000D01*
X155039000Y-109799000D02*
X155039000Y-99401000D01*
X156190000Y-110950000D02*
X155039000Y-109799000D01*
X155039000Y-99401000D02*
X156190000Y-98250000D01*
%TD*%
%TA.AperFunction,Conductor*%
%TO.N,GND*%
G36*
X141997388Y-66920185D02*
G01*
X142043143Y-66972989D01*
X142053087Y-67042147D01*
X142044910Y-67071952D01*
X141988430Y-67208306D01*
X141988427Y-67208318D01*
X141950000Y-67401504D01*
X141950000Y-67575000D01*
X142650000Y-67575000D01*
X142650000Y-68025000D01*
X141950000Y-68025000D01*
X141950000Y-68198495D01*
X141988427Y-68391681D01*
X141988430Y-68391693D01*
X142063807Y-68573671D01*
X142063814Y-68573684D01*
X142173248Y-68737462D01*
X142173251Y-68737466D01*
X142312533Y-68876748D01*
X142312537Y-68876751D01*
X142476315Y-68986185D01*
X142476328Y-68986192D01*
X142658307Y-69061569D01*
X142658319Y-69061572D01*
X142724999Y-69074836D01*
X142725000Y-69074836D01*
X142725000Y-68299265D01*
X142765795Y-68340060D01*
X142834204Y-68379556D01*
X142910504Y-68400000D01*
X142989496Y-68400000D01*
X143065796Y-68379556D01*
X143134205Y-68340060D01*
X143175000Y-68299265D01*
X143175000Y-69074836D01*
X143241680Y-69061572D01*
X143241692Y-69061569D01*
X143423671Y-68986192D01*
X143423684Y-68986185D01*
X143587462Y-68876751D01*
X143587466Y-68876748D01*
X143726748Y-68737466D01*
X143726751Y-68737462D01*
X143836185Y-68573684D01*
X143836192Y-68573671D01*
X143911569Y-68391693D01*
X143911572Y-68391681D01*
X143949999Y-68198495D01*
X143950000Y-68198492D01*
X143950000Y-68025000D01*
X143250000Y-68025000D01*
X143250000Y-67575000D01*
X143950000Y-67575000D01*
X143950000Y-67401508D01*
X143949999Y-67401504D01*
X143911572Y-67208318D01*
X143911569Y-67208306D01*
X143855090Y-67071952D01*
X143847621Y-67002483D01*
X143878896Y-66940004D01*
X143938985Y-66904352D01*
X143969651Y-66900500D01*
X150570349Y-66900500D01*
X150637388Y-66920185D01*
X150683143Y-66972989D01*
X150693087Y-67042147D01*
X150684910Y-67071952D01*
X150628430Y-67208306D01*
X150628427Y-67208318D01*
X150590000Y-67401504D01*
X150590000Y-67575000D01*
X151290000Y-67575000D01*
X151290000Y-68025000D01*
X150590000Y-68025000D01*
X150590000Y-68198495D01*
X150628427Y-68391681D01*
X150628430Y-68391693D01*
X150703807Y-68573671D01*
X150703814Y-68573684D01*
X150813248Y-68737462D01*
X150813251Y-68737466D01*
X150952533Y-68876748D01*
X150952537Y-68876751D01*
X151116315Y-68986185D01*
X151116328Y-68986192D01*
X151298307Y-69061569D01*
X151298319Y-69061572D01*
X151364999Y-69074836D01*
X151365000Y-69074836D01*
X151365000Y-68299265D01*
X151405795Y-68340060D01*
X151474204Y-68379556D01*
X151550504Y-68400000D01*
X151629496Y-68400000D01*
X151705796Y-68379556D01*
X151774205Y-68340060D01*
X151815000Y-68299265D01*
X151815000Y-69074836D01*
X151881680Y-69061572D01*
X151881692Y-69061569D01*
X152063671Y-68986192D01*
X152063684Y-68986185D01*
X152227462Y-68876751D01*
X152227466Y-68876748D01*
X152366748Y-68737466D01*
X152366751Y-68737462D01*
X152476185Y-68573684D01*
X152476192Y-68573671D01*
X152551569Y-68391693D01*
X152551572Y-68391681D01*
X152589999Y-68198495D01*
X152590000Y-68198492D01*
X152590000Y-68025000D01*
X151890000Y-68025000D01*
X151890000Y-67575000D01*
X152590000Y-67575000D01*
X152590000Y-67401508D01*
X152589999Y-67401504D01*
X152551572Y-67208318D01*
X152551569Y-67208306D01*
X152495090Y-67071952D01*
X152487621Y-67002483D01*
X152518896Y-66940004D01*
X152578985Y-66904352D01*
X152609651Y-66900500D01*
X154865500Y-66900500D01*
X154932539Y-66920185D01*
X154978294Y-66972989D01*
X154989500Y-67024500D01*
X154989500Y-68653260D01*
X154999426Y-68721391D01*
X155050803Y-68826485D01*
X155133514Y-68909196D01*
X155133515Y-68909196D01*
X155133517Y-68909198D01*
X155238607Y-68960573D01*
X155272673Y-68965536D01*
X155306739Y-68970500D01*
X155658090Y-68970500D01*
X155725129Y-68990185D01*
X155770884Y-69042989D01*
X155780828Y-69112147D01*
X155751803Y-69175703D01*
X155714385Y-69204985D01*
X155560800Y-69283240D01*
X155473579Y-69346610D01*
X155407927Y-69394310D01*
X155407925Y-69394312D01*
X155407924Y-69394312D01*
X155274312Y-69527924D01*
X155274312Y-69527925D01*
X155274310Y-69527927D01*
X155266587Y-69538557D01*
X155163240Y-69680800D01*
X155077454Y-69849163D01*
X155019059Y-70028881D01*
X154989500Y-70215513D01*
X154989500Y-70404486D01*
X155019059Y-70591118D01*
X155077454Y-70770836D01*
X155130274Y-70874500D01*
X155163240Y-70939199D01*
X155274310Y-71092073D01*
X155407927Y-71225690D01*
X155560801Y-71336760D01*
X155634348Y-71374234D01*
X155729163Y-71422545D01*
X155729165Y-71422545D01*
X155729168Y-71422547D01*
X155818734Y-71451649D01*
X155850803Y-71462069D01*
X155908478Y-71501507D01*
X155935676Y-71565866D01*
X155923761Y-71634712D01*
X155876516Y-71686188D01*
X155850803Y-71697931D01*
X155729163Y-71737454D01*
X155560800Y-71823240D01*
X155473579Y-71886610D01*
X155407927Y-71934310D01*
X155407925Y-71934312D01*
X155407924Y-71934312D01*
X155274312Y-72067924D01*
X155274312Y-72067925D01*
X155274310Y-72067927D01*
X155261824Y-72085113D01*
X155163240Y-72220800D01*
X155077454Y-72389163D01*
X155019059Y-72568881D01*
X154989500Y-72755513D01*
X154989500Y-72944486D01*
X155019060Y-73131119D01*
X155019060Y-73131122D01*
X155057554Y-73249592D01*
X155059549Y-73319433D01*
X155027304Y-73375591D01*
X154678513Y-73724383D01*
X154678509Y-73724389D01*
X154619201Y-73827112D01*
X154619200Y-73827117D01*
X154588500Y-73941691D01*
X154588500Y-77271247D01*
X154568815Y-77338286D01*
X154516011Y-77384041D01*
X154446853Y-77393985D01*
X154417049Y-77385809D01*
X154410252Y-77382993D01*
X154389744Y-77374499D01*
X154389742Y-77374498D01*
X154389738Y-77374497D01*
X154264071Y-77349500D01*
X154264069Y-77349500D01*
X154135931Y-77349500D01*
X154135929Y-77349500D01*
X154010261Y-77374497D01*
X154010255Y-77374499D01*
X153891875Y-77423533D01*
X153891866Y-77423538D01*
X153785331Y-77494723D01*
X153785327Y-77494726D01*
X153766873Y-77513181D01*
X153705550Y-77546666D01*
X153679192Y-77549500D01*
X152320808Y-77549500D01*
X152253769Y-77529815D01*
X152233127Y-77513181D01*
X152214672Y-77494726D01*
X152214668Y-77494723D01*
X152108133Y-77423538D01*
X152108124Y-77423533D01*
X151989744Y-77374499D01*
X151989738Y-77374497D01*
X151864071Y-77349500D01*
X151864069Y-77349500D01*
X151735931Y-77349500D01*
X151735929Y-77349500D01*
X151610261Y-77374497D01*
X151610255Y-77374499D01*
X151491875Y-77423533D01*
X151491866Y-77423538D01*
X151385331Y-77494723D01*
X151385327Y-77494726D01*
X151294726Y-77585327D01*
X151294723Y-77585331D01*
X151277602Y-77610955D01*
X151223989Y-77655760D01*
X151154664Y-77664467D01*
X151091637Y-77634312D01*
X151054918Y-77574869D01*
X151050500Y-77542064D01*
X151050500Y-75540693D01*
X151050500Y-75540691D01*
X151019799Y-75426114D01*
X151019799Y-75426113D01*
X150960489Y-75323386D01*
X150686819Y-75049716D01*
X150653334Y-74988393D01*
X150650500Y-74962035D01*
X150650500Y-74935928D01*
X150625502Y-74810261D01*
X150625501Y-74810260D01*
X150625501Y-74810256D01*
X150576465Y-74691873D01*
X150576464Y-74691872D01*
X150576461Y-74691866D01*
X150505276Y-74585331D01*
X150505273Y-74585327D01*
X150414672Y-74494726D01*
X150414668Y-74494723D01*
X150308133Y-74423538D01*
X150308124Y-74423533D01*
X150189744Y-74374499D01*
X150189738Y-74374497D01*
X150064071Y-74349500D01*
X150064069Y-74349500D01*
X149935931Y-74349500D01*
X149935929Y-74349500D01*
X149810261Y-74374497D01*
X149810255Y-74374499D01*
X149691875Y-74423533D01*
X149691866Y-74423538D01*
X149585331Y-74494723D01*
X149585327Y-74494726D01*
X149494726Y-74585327D01*
X149494723Y-74585331D01*
X149423538Y-74691866D01*
X149423533Y-74691875D01*
X149374499Y-74810255D01*
X149374497Y-74810261D01*
X149349500Y-74935928D01*
X149349500Y-74935931D01*
X149349500Y-75064069D01*
X149349500Y-75064071D01*
X149349499Y-75064071D01*
X149374497Y-75189738D01*
X149374499Y-75189744D01*
X149423533Y-75308124D01*
X149423538Y-75308133D01*
X149494723Y-75414668D01*
X149494726Y-75414672D01*
X149585327Y-75505273D01*
X149585331Y-75505276D01*
X149691866Y-75576461D01*
X149691872Y-75576464D01*
X149691873Y-75576465D01*
X149810256Y-75625501D01*
X149810260Y-75625501D01*
X149810261Y-75625502D01*
X149935928Y-75650500D01*
X149935931Y-75650500D01*
X149962035Y-75650500D01*
X149991475Y-75659144D01*
X150021462Y-75665668D01*
X150026477Y-75669422D01*
X150029074Y-75670185D01*
X150049716Y-75686819D01*
X150113181Y-75750284D01*
X150146666Y-75811607D01*
X150149500Y-75837965D01*
X150149500Y-79923035D01*
X150129815Y-79990074D01*
X150077011Y-80035829D01*
X150007853Y-80045773D01*
X149944297Y-80016748D01*
X149937819Y-80010716D01*
X147686819Y-77759716D01*
X147653334Y-77698393D01*
X147650500Y-77672035D01*
X147650500Y-77645928D01*
X147625502Y-77520261D01*
X147625501Y-77520260D01*
X147625501Y-77520256D01*
X147585437Y-77423533D01*
X147576466Y-77401875D01*
X147576461Y-77401866D01*
X147505276Y-77295331D01*
X147505273Y-77295327D01*
X147414672Y-77204726D01*
X147414668Y-77204723D01*
X147308133Y-77133538D01*
X147308124Y-77133533D01*
X147189744Y-77084499D01*
X147189738Y-77084497D01*
X147064071Y-77059500D01*
X147064069Y-77059500D01*
X146935931Y-77059500D01*
X146935929Y-77059500D01*
X146810261Y-77084497D01*
X146810255Y-77084499D01*
X146691875Y-77133533D01*
X146691866Y-77133538D01*
X146585331Y-77204723D01*
X146585327Y-77204726D01*
X146522991Y-77267063D01*
X146461668Y-77300548D01*
X146391976Y-77295564D01*
X146366419Y-77282484D01*
X146308133Y-77243538D01*
X146308124Y-77243533D01*
X146189744Y-77194499D01*
X146189738Y-77194497D01*
X146064071Y-77169500D01*
X146064069Y-77169500D01*
X145935931Y-77169500D01*
X145935929Y-77169500D01*
X145810261Y-77194497D01*
X145810255Y-77194499D01*
X145691875Y-77243533D01*
X145691866Y-77243538D01*
X145585331Y-77314723D01*
X145585327Y-77314726D01*
X145494726Y-77405327D01*
X145494723Y-77405331D01*
X145423538Y-77511866D01*
X145423533Y-77511875D01*
X145374499Y-77630255D01*
X145374497Y-77630261D01*
X145349500Y-77755928D01*
X145349500Y-77755931D01*
X145349500Y-77884069D01*
X145349500Y-77884071D01*
X145349499Y-77884071D01*
X145374497Y-78009738D01*
X145374499Y-78009744D01*
X145423533Y-78128124D01*
X145423538Y-78128133D01*
X145494723Y-78234668D01*
X145494726Y-78234672D01*
X145585327Y-78325273D01*
X145585331Y-78325276D01*
X145691866Y-78396461D01*
X145691875Y-78396466D01*
X145718692Y-78407574D01*
X145810256Y-78445501D01*
X145810260Y-78445501D01*
X145810261Y-78445502D01*
X145935928Y-78470500D01*
X145935931Y-78470500D01*
X146064070Y-78470500D01*
X146173707Y-78448691D01*
X146243298Y-78454918D01*
X146285580Y-78482627D01*
X146474443Y-78671490D01*
X146577170Y-78730799D01*
X146601383Y-78737286D01*
X146691748Y-78761500D01*
X146803684Y-78761500D01*
X146811374Y-78762465D01*
X146836592Y-78773438D01*
X146862974Y-78781185D01*
X146873044Y-78789300D01*
X146875441Y-78790343D01*
X146876727Y-78792268D01*
X146883616Y-78797819D01*
X148711181Y-80625384D01*
X148744666Y-80686707D01*
X148747500Y-80713065D01*
X148747500Y-88721002D01*
X148727815Y-88788041D01*
X148675011Y-88833796D01*
X148623500Y-88845002D01*
X148533929Y-88845002D01*
X148408261Y-88869999D01*
X148402429Y-88871769D01*
X148401854Y-88869875D01*
X148341428Y-88876358D01*
X148278956Y-88845068D01*
X148243318Y-88784970D01*
X148245829Y-88715146D01*
X148275791Y-88666653D01*
X148340276Y-88602169D01*
X148411465Y-88495627D01*
X148460501Y-88377244D01*
X148483149Y-88263389D01*
X148485500Y-88251571D01*
X148485500Y-88123428D01*
X148460502Y-87997761D01*
X148460501Y-87997760D01*
X148460501Y-87997756D01*
X148411465Y-87879373D01*
X148411464Y-87879372D01*
X148411461Y-87879366D01*
X148340276Y-87772831D01*
X148340273Y-87772827D01*
X148249672Y-87682226D01*
X148249668Y-87682223D01*
X148143133Y-87611038D01*
X148143124Y-87611033D01*
X148024744Y-87561999D01*
X148024738Y-87561997D01*
X147899071Y-87537000D01*
X147899069Y-87537000D01*
X147770931Y-87537000D01*
X147770929Y-87537000D01*
X147645261Y-87561997D01*
X147645255Y-87561999D01*
X147526875Y-87611033D01*
X147526866Y-87611038D01*
X147420331Y-87682223D01*
X147420327Y-87682226D01*
X147329730Y-87772824D01*
X147329723Y-87772832D01*
X147303098Y-87812676D01*
X147249484Y-87857479D01*
X147180159Y-87866183D01*
X147117133Y-87836026D01*
X147096897Y-87812671D01*
X147070279Y-87772835D01*
X147070273Y-87772827D01*
X146979672Y-87682226D01*
X146979668Y-87682223D01*
X146873133Y-87611038D01*
X146873124Y-87611033D01*
X146754744Y-87561999D01*
X146754738Y-87561997D01*
X146629071Y-87537000D01*
X146629069Y-87537000D01*
X146500931Y-87537000D01*
X146500929Y-87537000D01*
X146375261Y-87561997D01*
X146375255Y-87561999D01*
X146256875Y-87611033D01*
X146256866Y-87611038D01*
X146150331Y-87682223D01*
X146150327Y-87682226D01*
X146059726Y-87772827D01*
X146059723Y-87772831D01*
X145988538Y-87879366D01*
X145988533Y-87879375D01*
X145939499Y-87997755D01*
X145939497Y-87997761D01*
X145914500Y-88123428D01*
X145914500Y-88149535D01*
X145894815Y-88216574D01*
X145878181Y-88237216D01*
X145359998Y-88755399D01*
X145333070Y-88770102D01*
X145307252Y-88786695D01*
X145301051Y-88787586D01*
X145298675Y-88788884D01*
X145272317Y-88791718D01*
X145127119Y-88791718D01*
X145060080Y-88772033D01*
X145039438Y-88755399D01*
X145020983Y-88736944D01*
X145020979Y-88736941D01*
X144914444Y-88665756D01*
X144914435Y-88665751D01*
X144796055Y-88616717D01*
X144796049Y-88616715D01*
X144670382Y-88591718D01*
X144670380Y-88591718D01*
X144579811Y-88591718D01*
X144512772Y-88572033D01*
X144467017Y-88519229D01*
X144455811Y-88467718D01*
X144455811Y-87771654D01*
X144475496Y-87704615D01*
X144492130Y-87683973D01*
X145289284Y-86886819D01*
X145350607Y-86853334D01*
X145376965Y-86850500D01*
X145403071Y-86850500D01*
X145493825Y-86832447D01*
X145528744Y-86825501D01*
X145647127Y-86776465D01*
X145753669Y-86705276D01*
X145844276Y-86614669D01*
X145915465Y-86508127D01*
X145964501Y-86389744D01*
X145975973Y-86332073D01*
X145989500Y-86264071D01*
X145989500Y-86135928D01*
X145964502Y-86010261D01*
X145964501Y-86010260D01*
X145964501Y-86010256D01*
X145915465Y-85891873D01*
X145915464Y-85891872D01*
X145915461Y-85891866D01*
X145844276Y-85785331D01*
X145844273Y-85785327D01*
X145753672Y-85694726D01*
X145753668Y-85694723D01*
X145647133Y-85623538D01*
X145647124Y-85623533D01*
X145528744Y-85574499D01*
X145528738Y-85574497D01*
X145403071Y-85549500D01*
X145403069Y-85549500D01*
X145274931Y-85549500D01*
X145274929Y-85549500D01*
X145149261Y-85574497D01*
X145149255Y-85574499D01*
X145030875Y-85623533D01*
X145030866Y-85623538D01*
X144924331Y-85694723D01*
X144924327Y-85694726D01*
X144833726Y-85785327D01*
X144833723Y-85785331D01*
X144762538Y-85891866D01*
X144762533Y-85891875D01*
X144713499Y-86010255D01*
X144713497Y-86010261D01*
X144688500Y-86135928D01*
X144688500Y-86162035D01*
X144668815Y-86229074D01*
X144652181Y-86249716D01*
X143644824Y-87257072D01*
X143644820Y-87257078D01*
X143585512Y-87359801D01*
X143585511Y-87359806D01*
X143555239Y-87472783D01*
X143554811Y-87474380D01*
X143554811Y-89550470D01*
X143563498Y-89582891D01*
X143577919Y-89636712D01*
X143577926Y-89636735D01*
X143577929Y-89636746D01*
X143585512Y-89665048D01*
X143644822Y-89767775D01*
X143644824Y-89767777D01*
X143704866Y-89827819D01*
X143738351Y-89889142D01*
X143733367Y-89958834D01*
X143691495Y-90014767D01*
X143626031Y-90039184D01*
X143617185Y-90039500D01*
X143535929Y-90039500D01*
X143410261Y-90064497D01*
X143410255Y-90064499D01*
X143291875Y-90113533D01*
X143291866Y-90113538D01*
X143185331Y-90184723D01*
X143185327Y-90184726D01*
X143094726Y-90275327D01*
X143094723Y-90275331D01*
X143023538Y-90381866D01*
X143023533Y-90381875D01*
X142974499Y-90500255D01*
X142974497Y-90500261D01*
X142949500Y-90625928D01*
X142949500Y-90652035D01*
X142929815Y-90719074D01*
X142913181Y-90739716D01*
X142639513Y-91013383D01*
X142639509Y-91013389D01*
X142580201Y-91116112D01*
X142580200Y-91116117D01*
X142549500Y-91230691D01*
X142549500Y-105769192D01*
X142529815Y-105836231D01*
X142513181Y-105856873D01*
X142494726Y-105875327D01*
X142494723Y-105875331D01*
X142423538Y-105981866D01*
X142423533Y-105981875D01*
X142374499Y-106100255D01*
X142374497Y-106100261D01*
X142349500Y-106225928D01*
X142349500Y-106225931D01*
X142349500Y-106354069D01*
X142349500Y-106354071D01*
X142349499Y-106354071D01*
X142374497Y-106479738D01*
X142374499Y-106479744D01*
X142423533Y-106598124D01*
X142423538Y-106598133D01*
X142494723Y-106704668D01*
X142494726Y-106704672D01*
X142585327Y-106795273D01*
X142585331Y-106795276D01*
X142691866Y-106866461D01*
X142691872Y-106866464D01*
X142691873Y-106866465D01*
X142810256Y-106915501D01*
X142810260Y-106915501D01*
X142810261Y-106915502D01*
X142935928Y-106940500D01*
X142935931Y-106940500D01*
X143064071Y-106940500D01*
X143148615Y-106923682D01*
X143189744Y-106915501D01*
X143308127Y-106866465D01*
X143414669Y-106795276D01*
X143505276Y-106704669D01*
X143576465Y-106598127D01*
X143625501Y-106479744D01*
X143650500Y-106354069D01*
X143650500Y-106225931D01*
X143650500Y-106225928D01*
X143625502Y-106100261D01*
X143625501Y-106100260D01*
X143625501Y-106100256D01*
X143576465Y-105981873D01*
X143576464Y-105981872D01*
X143576461Y-105981866D01*
X143505276Y-105875331D01*
X143505273Y-105875327D01*
X143486819Y-105856873D01*
X143453334Y-105795550D01*
X143450500Y-105769192D01*
X143450500Y-91527965D01*
X143459144Y-91498524D01*
X143465668Y-91468538D01*
X143469422Y-91463522D01*
X143470185Y-91460926D01*
X143486819Y-91440284D01*
X143550284Y-91376819D01*
X143611607Y-91343334D01*
X143637965Y-91340500D01*
X143664071Y-91340500D01*
X143748712Y-91323663D01*
X143789744Y-91315501D01*
X143908127Y-91266465D01*
X144014669Y-91195276D01*
X144105276Y-91104669D01*
X144176465Y-90998127D01*
X144225501Y-90879744D01*
X144243217Y-90790683D01*
X144250500Y-90754071D01*
X144250500Y-90672815D01*
X144270185Y-90605776D01*
X144322989Y-90560021D01*
X144392147Y-90550077D01*
X144455703Y-90579102D01*
X144462181Y-90585134D01*
X144644235Y-90767188D01*
X144676328Y-90822774D01*
X144694351Y-90890037D01*
X144753661Y-90992764D01*
X144753663Y-90992766D01*
X144912181Y-91151284D01*
X144945666Y-91212607D01*
X144948500Y-91238965D01*
X144948500Y-95458309D01*
X144962485Y-95510502D01*
X144979199Y-95572884D01*
X144979201Y-95572887D01*
X145038511Y-95675614D01*
X145038513Y-95675616D01*
X146841716Y-97478819D01*
X146875201Y-97540142D01*
X146870217Y-97609834D01*
X146828345Y-97665767D01*
X146822928Y-97669601D01*
X146785329Y-97694724D01*
X146694726Y-97785327D01*
X146694723Y-97785331D01*
X146623538Y-97891866D01*
X146623533Y-97891875D01*
X146574499Y-98010255D01*
X146574497Y-98010261D01*
X146549500Y-98135928D01*
X146549500Y-98135931D01*
X146549500Y-98264069D01*
X146549500Y-98264071D01*
X146549499Y-98264071D01*
X146574497Y-98389738D01*
X146574499Y-98389744D01*
X146623533Y-98508124D01*
X146623538Y-98508133D01*
X146694723Y-98614668D01*
X146694726Y-98614672D01*
X146785327Y-98705273D01*
X146785331Y-98705276D01*
X146891866Y-98776461D01*
X146891872Y-98776464D01*
X146891873Y-98776465D01*
X147010256Y-98825501D01*
X147010259Y-98825501D01*
X147010260Y-98825502D01*
X147013367Y-98826445D01*
X147014795Y-98827381D01*
X147015884Y-98827832D01*
X147015798Y-98828038D01*
X147071806Y-98864743D01*
X147100262Y-98928555D01*
X147101371Y-98945105D01*
X147101371Y-104061180D01*
X147115008Y-104112073D01*
X147132072Y-104175758D01*
X147191382Y-104278485D01*
X147191384Y-104278487D01*
X149113181Y-106200284D01*
X149146666Y-106261607D01*
X149149500Y-106287965D01*
X149149500Y-106314069D01*
X149149500Y-106314071D01*
X149149499Y-106314071D01*
X149174497Y-106439738D01*
X149174499Y-106439744D01*
X149223533Y-106558124D01*
X149223538Y-106558133D01*
X149294723Y-106664668D01*
X149294726Y-106664672D01*
X149385327Y-106755273D01*
X149385331Y-106755276D01*
X149491866Y-106826461D01*
X149491872Y-106826464D01*
X149491873Y-106826465D01*
X149610256Y-106875501D01*
X149610260Y-106875501D01*
X149610261Y-106875502D01*
X149735928Y-106900500D01*
X149735931Y-106900500D01*
X149864071Y-106900500D01*
X149948615Y-106883682D01*
X149989744Y-106875501D01*
X150108127Y-106826465D01*
X150214669Y-106755276D01*
X150305276Y-106664669D01*
X150376465Y-106558127D01*
X150425501Y-106439744D01*
X150450500Y-106314069D01*
X150450500Y-106185931D01*
X150450500Y-106185928D01*
X150425502Y-106060261D01*
X150425501Y-106060260D01*
X150425501Y-106060256D01*
X150376465Y-105941873D01*
X150376464Y-105941872D01*
X150376461Y-105941866D01*
X150305276Y-105835331D01*
X150305273Y-105835327D01*
X150214672Y-105744726D01*
X150214668Y-105744723D01*
X150108133Y-105673538D01*
X150108124Y-105673533D01*
X149989744Y-105624499D01*
X149989738Y-105624497D01*
X149864071Y-105599500D01*
X149864069Y-105599500D01*
X149837965Y-105599500D01*
X149770926Y-105579815D01*
X149750284Y-105563181D01*
X148038690Y-103851587D01*
X148005205Y-103790264D01*
X148002371Y-103763906D01*
X148002371Y-98773684D01*
X148022056Y-98706645D01*
X148074860Y-98660890D01*
X148132563Y-98652246D01*
X148132563Y-98650500D01*
X148140691Y-98650500D01*
X148562034Y-98650500D01*
X148629073Y-98670185D01*
X148649715Y-98686819D01*
X148723386Y-98760490D01*
X148723388Y-98760491D01*
X148723392Y-98760494D01*
X148826110Y-98819798D01*
X148826115Y-98819800D01*
X148837642Y-98822888D01*
X148847394Y-98825501D01*
X148894753Y-98838190D01*
X148894804Y-98838221D01*
X148950339Y-98870284D01*
X148985327Y-98905273D01*
X148985331Y-98905276D01*
X149091866Y-98976461D01*
X149091872Y-98976464D01*
X149091873Y-98976465D01*
X149210256Y-99025501D01*
X149210260Y-99025501D01*
X149210261Y-99025502D01*
X149335928Y-99050500D01*
X149335931Y-99050500D01*
X149464071Y-99050500D01*
X149556705Y-99032073D01*
X149589744Y-99025501D01*
X149708127Y-98976465D01*
X149814669Y-98905276D01*
X149905276Y-98814669D01*
X149922397Y-98789044D01*
X149976009Y-98744240D01*
X150045334Y-98735531D01*
X150108362Y-98765686D01*
X150145081Y-98825128D01*
X150149500Y-98857935D01*
X150149500Y-100459309D01*
X150166402Y-100522388D01*
X150180199Y-100573884D01*
X150180200Y-100573885D01*
X150180201Y-100573887D01*
X150239511Y-100676614D01*
X150239513Y-100676616D01*
X150444196Y-100881299D01*
X150477681Y-100942622D01*
X150472697Y-101012314D01*
X150459617Y-101037870D01*
X150423541Y-101091861D01*
X150423533Y-101091875D01*
X150374499Y-101210255D01*
X150374497Y-101210261D01*
X150349500Y-101335928D01*
X150349500Y-101335931D01*
X150349500Y-101464069D01*
X150349500Y-101464071D01*
X150349499Y-101464071D01*
X150374497Y-101589738D01*
X150374499Y-101589744D01*
X150423533Y-101708124D01*
X150423538Y-101708133D01*
X150459617Y-101762128D01*
X150480495Y-101828805D01*
X150462011Y-101896185D01*
X150444196Y-101918700D01*
X150039513Y-102323383D01*
X150039509Y-102323389D01*
X149980201Y-102426112D01*
X149980200Y-102426117D01*
X149949500Y-102540691D01*
X149949500Y-103479192D01*
X149929815Y-103546231D01*
X149913181Y-103566873D01*
X149894726Y-103585327D01*
X149894723Y-103585331D01*
X149823538Y-103691866D01*
X149823533Y-103691875D01*
X149774499Y-103810255D01*
X149774497Y-103810261D01*
X149749500Y-103935928D01*
X149749500Y-103935931D01*
X149749500Y-104064069D01*
X149749500Y-104064071D01*
X149749499Y-104064071D01*
X149774497Y-104189738D01*
X149774499Y-104189744D01*
X149823533Y-104308124D01*
X149823538Y-104308133D01*
X149894723Y-104414668D01*
X149894726Y-104414672D01*
X149985327Y-104505273D01*
X149985331Y-104505276D01*
X150091866Y-104576461D01*
X150091872Y-104576464D01*
X150091873Y-104576465D01*
X150210256Y-104625501D01*
X150210260Y-104625501D01*
X150210261Y-104625502D01*
X150335928Y-104650500D01*
X150335931Y-104650500D01*
X150464071Y-104650500D01*
X150548615Y-104633682D01*
X150589744Y-104625501D01*
X150708127Y-104576465D01*
X150814669Y-104505276D01*
X150905276Y-104414669D01*
X150976465Y-104308127D01*
X151025501Y-104189744D01*
X151050500Y-104064069D01*
X151050500Y-103935931D01*
X151050500Y-103935928D01*
X151025502Y-103810261D01*
X151025501Y-103810260D01*
X151025501Y-103810256D01*
X150976465Y-103691873D01*
X150976464Y-103691872D01*
X150976461Y-103691866D01*
X150905276Y-103585331D01*
X150905273Y-103585327D01*
X150886819Y-103566873D01*
X150853334Y-103505550D01*
X150850500Y-103479192D01*
X150850500Y-102837965D01*
X150870185Y-102770926D01*
X150886819Y-102750284D01*
X151120418Y-102516685D01*
X151360489Y-102276614D01*
X151418113Y-102176806D01*
X151468681Y-102128592D01*
X151537288Y-102115370D01*
X151602152Y-102141338D01*
X151642680Y-102198252D01*
X151649500Y-102238808D01*
X151649500Y-112029192D01*
X151629815Y-112096231D01*
X151613181Y-112116873D01*
X151594726Y-112135327D01*
X151594723Y-112135331D01*
X151523538Y-112241866D01*
X151523533Y-112241875D01*
X151474499Y-112360255D01*
X151474497Y-112360261D01*
X151449500Y-112485928D01*
X151449500Y-112485931D01*
X151449500Y-112614069D01*
X151449500Y-112614071D01*
X151449499Y-112614071D01*
X151474497Y-112739738D01*
X151474499Y-112739744D01*
X151523533Y-112858124D01*
X151523538Y-112858133D01*
X151594723Y-112964668D01*
X151594726Y-112964672D01*
X151685327Y-113055273D01*
X151685331Y-113055276D01*
X151791866Y-113126461D01*
X151791872Y-113126464D01*
X151791873Y-113126465D01*
X151910256Y-113175501D01*
X151910260Y-113175501D01*
X151910261Y-113175502D01*
X152035928Y-113200500D01*
X152035931Y-113200500D01*
X152164071Y-113200500D01*
X152248615Y-113183682D01*
X152289744Y-113175501D01*
X152408127Y-113126465D01*
X152514669Y-113055276D01*
X152605276Y-112964669D01*
X152676465Y-112858127D01*
X152725501Y-112739744D01*
X152750500Y-112614069D01*
X152750500Y-112485931D01*
X152750500Y-112485928D01*
X152725502Y-112360261D01*
X152725501Y-112360260D01*
X152725501Y-112360256D01*
X152676465Y-112241873D01*
X152676464Y-112241872D01*
X152676461Y-112241866D01*
X152605276Y-112135331D01*
X152605273Y-112135327D01*
X152586819Y-112116873D01*
X152553334Y-112055550D01*
X152550500Y-112029192D01*
X152550500Y-101840693D01*
X152550500Y-101840691D01*
X152519799Y-101726114D01*
X152508007Y-101705690D01*
X152460490Y-101623386D01*
X152087819Y-101250715D01*
X152054334Y-101189392D01*
X152052835Y-101181183D01*
X152051500Y-101172160D01*
X152051500Y-101091748D01*
X152026782Y-100999500D01*
X152020799Y-100977170D01*
X152020798Y-100977167D01*
X151961494Y-100874449D01*
X151961488Y-100874441D01*
X151891177Y-100804130D01*
X151857692Y-100742807D01*
X151862676Y-100673115D01*
X151891177Y-100628767D01*
X151905276Y-100614669D01*
X151976465Y-100508127D01*
X152025501Y-100389744D01*
X152050500Y-100264069D01*
X152050500Y-100135931D01*
X152050500Y-100135927D01*
X152047394Y-100120316D01*
X152049236Y-100064022D01*
X152050500Y-100059309D01*
X152050500Y-94237966D01*
X152070185Y-94170927D01*
X152086819Y-94150284D01*
X152160490Y-94076614D01*
X152219799Y-93973887D01*
X152227585Y-93944831D01*
X152228695Y-93940689D01*
X152238452Y-93904273D01*
X152250500Y-93859309D01*
X152250500Y-93520807D01*
X152257469Y-93497071D01*
X152260298Y-93472497D01*
X152268075Y-93460950D01*
X152270185Y-93453768D01*
X152278534Y-93442279D01*
X152282442Y-93437502D01*
X152305276Y-93414669D01*
X152323743Y-93387029D01*
X152327538Y-93382393D01*
X152351631Y-93365931D01*
X152374011Y-93347227D01*
X152380131Y-93346457D01*
X152385228Y-93342976D01*
X152414392Y-93342153D01*
X152443335Y-93338517D01*
X152454967Y-93341008D01*
X152455070Y-93341006D01*
X152455134Y-93341044D01*
X152455551Y-93341134D01*
X152456480Y-93341382D01*
X152457548Y-93341668D01*
X152517222Y-93378010D01*
X152547775Y-93440845D01*
X152549500Y-93461455D01*
X152549500Y-95119308D01*
X152573712Y-95209672D01*
X152580200Y-95233885D01*
X152580200Y-95233886D01*
X152605267Y-95277303D01*
X152639511Y-95336614D01*
X152639513Y-95336616D01*
X155027304Y-97724407D01*
X155060789Y-97785730D01*
X155057554Y-97850406D01*
X155019060Y-97968877D01*
X155019060Y-97968880D01*
X154989500Y-98155513D01*
X154989500Y-98344486D01*
X155019060Y-98531119D01*
X155019060Y-98531122D01*
X155057554Y-98649592D01*
X155059549Y-98719433D01*
X155027304Y-98775591D01*
X154678513Y-99124383D01*
X154678509Y-99124389D01*
X154619201Y-99227112D01*
X154619200Y-99227117D01*
X154588500Y-99341691D01*
X154588500Y-109858308D01*
X154612712Y-109948672D01*
X154619200Y-109972885D01*
X154619200Y-109972886D01*
X154619201Y-109972887D01*
X154678511Y-110075614D01*
X154678513Y-110075616D01*
X155027304Y-110424407D01*
X155060789Y-110485730D01*
X155057554Y-110550406D01*
X155019060Y-110668877D01*
X155019060Y-110668880D01*
X154989500Y-110855513D01*
X154989500Y-111044486D01*
X155019059Y-111231118D01*
X155077454Y-111410836D01*
X155163240Y-111579199D01*
X155274310Y-111732073D01*
X155407927Y-111865690D01*
X155560801Y-111976760D01*
X155640347Y-112017290D01*
X155729163Y-112062545D01*
X155729165Y-112062545D01*
X155729168Y-112062547D01*
X155784591Y-112080555D01*
X155850803Y-112102069D01*
X155908478Y-112141507D01*
X155935676Y-112205866D01*
X155923761Y-112274712D01*
X155876516Y-112326188D01*
X155850803Y-112337931D01*
X155729163Y-112377454D01*
X155560800Y-112463240D01*
X155473579Y-112526610D01*
X155407927Y-112574310D01*
X155407925Y-112574312D01*
X155407924Y-112574312D01*
X155274312Y-112707924D01*
X155274312Y-112707925D01*
X155274310Y-112707927D01*
X155226610Y-112773579D01*
X155163240Y-112860800D01*
X155077454Y-113029163D01*
X155019059Y-113208881D01*
X154989500Y-113395513D01*
X154989500Y-113584486D01*
X155019059Y-113771118D01*
X155077454Y-113950836D01*
X155163240Y-114119199D01*
X155274310Y-114272073D01*
X155407927Y-114405690D01*
X155560801Y-114516760D01*
X155593149Y-114533242D01*
X155729163Y-114602545D01*
X155729165Y-114602545D01*
X155729168Y-114602547D01*
X155818734Y-114631649D01*
X155850803Y-114642069D01*
X155908478Y-114681507D01*
X155935676Y-114745866D01*
X155923761Y-114814712D01*
X155876516Y-114866188D01*
X155850803Y-114877931D01*
X155729163Y-114917454D01*
X155560800Y-115003240D01*
X155473579Y-115066610D01*
X155407927Y-115114310D01*
X155407925Y-115114312D01*
X155407924Y-115114312D01*
X155274312Y-115247924D01*
X155274312Y-115247925D01*
X155274310Y-115247927D01*
X155266587Y-115258557D01*
X155163240Y-115400800D01*
X155077454Y-115569163D01*
X155019059Y-115748881D01*
X154989500Y-115935513D01*
X154989500Y-116124486D01*
X155019059Y-116311118D01*
X155077454Y-116490836D01*
X155163240Y-116659199D01*
X155194783Y-116702614D01*
X155218263Y-116768421D01*
X155202438Y-116836475D01*
X155152332Y-116885170D01*
X155094465Y-116899500D01*
X150647625Y-116899500D01*
X150580586Y-116879815D01*
X150534831Y-116827011D01*
X150524887Y-116757853D01*
X150553912Y-116694297D01*
X150559944Y-116687819D01*
X150615690Y-116632073D01*
X150726760Y-116479199D01*
X150812547Y-116310832D01*
X150870940Y-116131118D01*
X150871991Y-116124481D01*
X150900500Y-115944486D01*
X150900500Y-115755513D01*
X150870940Y-115568881D01*
X150832280Y-115449901D01*
X150812547Y-115389168D01*
X150812545Y-115389165D01*
X150812545Y-115389163D01*
X150748537Y-115263541D01*
X150726760Y-115220801D01*
X150615690Y-115067927D01*
X150482073Y-114934310D01*
X150329199Y-114823240D01*
X150312462Y-114814712D01*
X150160836Y-114737454D01*
X149981118Y-114679059D01*
X149794486Y-114649500D01*
X149794481Y-114649500D01*
X149605519Y-114649500D01*
X149605514Y-114649500D01*
X149418881Y-114679059D01*
X149239163Y-114737454D01*
X149070800Y-114823240D01*
X149021499Y-114859060D01*
X148917927Y-114934310D01*
X148917925Y-114934312D01*
X148917924Y-114934312D01*
X148784312Y-115067924D01*
X148784312Y-115067925D01*
X148784310Y-115067927D01*
X148769612Y-115088157D01*
X148673238Y-115220803D01*
X148624377Y-115316697D01*
X148576402Y-115367492D01*
X148508581Y-115384287D01*
X148442447Y-115361749D01*
X148403408Y-115316696D01*
X148314620Y-115142442D01*
X148260393Y-115067804D01*
X148260391Y-115067804D01*
X147635490Y-115692705D01*
X147625925Y-115657007D01*
X147560099Y-115542993D01*
X147467007Y-115449901D01*
X147352993Y-115384075D01*
X147317293Y-115374509D01*
X147942194Y-114749606D01*
X147867550Y-114695375D01*
X147678217Y-114598904D01*
X147476129Y-114533242D01*
X147266246Y-114500000D01*
X147053754Y-114500000D01*
X146843872Y-114533242D01*
X146843869Y-114533242D01*
X146641782Y-114598904D01*
X146452447Y-114695376D01*
X146452445Y-114695377D01*
X146377804Y-114749605D01*
X146377804Y-114749606D01*
X147002707Y-115374509D01*
X146967007Y-115384075D01*
X146852993Y-115449901D01*
X146759901Y-115542993D01*
X146694075Y-115657007D01*
X146684509Y-115692707D01*
X146059606Y-115067804D01*
X146059605Y-115067804D01*
X146044819Y-115088157D01*
X145989490Y-115130823D01*
X145919877Y-115136804D01*
X145858081Y-115104199D01*
X145823723Y-115043360D01*
X145823122Y-115040638D01*
X145820500Y-115028090D01*
X145820500Y-114966740D01*
X145810573Y-114898607D01*
X145759198Y-114793517D01*
X145759196Y-114793515D01*
X145759196Y-114793514D01*
X145676485Y-114710803D01*
X145571391Y-114659426D01*
X145503261Y-114649500D01*
X145503260Y-114649500D01*
X143736740Y-114649500D01*
X143736739Y-114649500D01*
X143668608Y-114659426D01*
X143563514Y-114710803D01*
X143480803Y-114793514D01*
X143429426Y-114898608D01*
X143419500Y-114966739D01*
X143419500Y-114966740D01*
X143419500Y-116733260D01*
X143421814Y-116749142D01*
X143423050Y-116757624D01*
X143413235Y-116826801D01*
X143367579Y-116879690D01*
X143300576Y-116899500D01*
X139505535Y-116899500D01*
X139438496Y-116879815D01*
X139392741Y-116827011D01*
X139382797Y-116757853D01*
X139405217Y-116702614D01*
X139436760Y-116659199D01*
X139522547Y-116490832D01*
X139580940Y-116311118D01*
X139580985Y-116310832D01*
X139610500Y-116124486D01*
X139610500Y-115935513D01*
X139580940Y-115748881D01*
X139522545Y-115569163D01*
X139477290Y-115480347D01*
X139436760Y-115400801D01*
X139325690Y-115247927D01*
X139192073Y-115114310D01*
X139039199Y-115003240D01*
X138870836Y-114917454D01*
X138796472Y-114893291D01*
X138749195Y-114877930D01*
X138691521Y-114838493D01*
X138664323Y-114774134D01*
X138676238Y-114705288D01*
X138723482Y-114653812D01*
X138749194Y-114642069D01*
X138870832Y-114602547D01*
X139039199Y-114516760D01*
X139192073Y-114405690D01*
X139325690Y-114272073D01*
X139436760Y-114119199D01*
X139522547Y-113950832D01*
X139580940Y-113771118D01*
X139610500Y-113584486D01*
X139610500Y-113395513D01*
X139580940Y-113208881D01*
X139522545Y-113029163D01*
X139436759Y-112860800D01*
X139325690Y-112707927D01*
X139192073Y-112574310D01*
X139100613Y-112507860D01*
X139039194Y-112463236D01*
X138943303Y-112414377D01*
X138892507Y-112366403D01*
X138875712Y-112298582D01*
X138898250Y-112232447D01*
X138943303Y-112193408D01*
X139117554Y-112104622D01*
X139192194Y-112050392D01*
X139192195Y-112050392D01*
X138567293Y-111425490D01*
X138602993Y-111415925D01*
X138717007Y-111350099D01*
X138810099Y-111257007D01*
X138875925Y-111142993D01*
X138885490Y-111107293D01*
X139510392Y-111732195D01*
X139510392Y-111732194D01*
X139564622Y-111657554D01*
X139661095Y-111468217D01*
X139726757Y-111266130D01*
X139726757Y-111266127D01*
X139760000Y-111056246D01*
X139760000Y-110843753D01*
X139726757Y-110633872D01*
X139726757Y-110633869D01*
X139661095Y-110431782D01*
X139564620Y-110242442D01*
X139510393Y-110167804D01*
X139510391Y-110167804D01*
X138885490Y-110792705D01*
X138875925Y-110757007D01*
X138810099Y-110642993D01*
X138717007Y-110549901D01*
X138602993Y-110484075D01*
X138567293Y-110474509D01*
X139192194Y-109849606D01*
X139117550Y-109795375D01*
X138943303Y-109706591D01*
X138892507Y-109658616D01*
X138875712Y-109590795D01*
X138898250Y-109524660D01*
X138943302Y-109485621D01*
X139039199Y-109436760D01*
X139192073Y-109325690D01*
X139325690Y-109192073D01*
X139436760Y-109039199D01*
X139522547Y-108870832D01*
X139580940Y-108691118D01*
X139610500Y-108504486D01*
X139610500Y-108315513D01*
X139580940Y-108128881D01*
X139522545Y-107949163D01*
X139436759Y-107780800D01*
X139325690Y-107627927D01*
X139192073Y-107494310D01*
X139039199Y-107383240D01*
X138870836Y-107297454D01*
X138796472Y-107273291D01*
X138749195Y-107257930D01*
X138691521Y-107218493D01*
X138664323Y-107154134D01*
X138676238Y-107085288D01*
X138723482Y-107033812D01*
X138749194Y-107022069D01*
X138870832Y-106982547D01*
X139039199Y-106896760D01*
X139192073Y-106785690D01*
X139325690Y-106652073D01*
X139436760Y-106499199D01*
X139522547Y-106330832D01*
X139580940Y-106151118D01*
X139588996Y-106100255D01*
X139610500Y-105964486D01*
X139610500Y-105775513D01*
X139580940Y-105588881D01*
X139522545Y-105409163D01*
X139436759Y-105240800D01*
X139325690Y-105087927D01*
X139192073Y-104954310D01*
X139039199Y-104843240D01*
X138870836Y-104757454D01*
X138796472Y-104733291D01*
X138749195Y-104717930D01*
X138691521Y-104678493D01*
X138664323Y-104614134D01*
X138676238Y-104545288D01*
X138723482Y-104493812D01*
X138749194Y-104482069D01*
X138870832Y-104442547D01*
X139039199Y-104356760D01*
X139192073Y-104245690D01*
X139325690Y-104112073D01*
X139436760Y-103959199D01*
X139522547Y-103790832D01*
X139580940Y-103611118D01*
X139593700Y-103530555D01*
X139610500Y-103424486D01*
X139610500Y-103235513D01*
X139580940Y-103048881D01*
X139522545Y-102869163D01*
X139436759Y-102700800D01*
X139325690Y-102547927D01*
X139192073Y-102414310D01*
X139039199Y-102303240D01*
X138870836Y-102217454D01*
X138796472Y-102193291D01*
X138749195Y-102177930D01*
X138691521Y-102138493D01*
X138664323Y-102074134D01*
X138676238Y-102005288D01*
X138723482Y-101953812D01*
X138749194Y-101942069D01*
X138870832Y-101902547D01*
X139039199Y-101816760D01*
X139192073Y-101705690D01*
X139325690Y-101572073D01*
X139436760Y-101419199D01*
X139522547Y-101250832D01*
X139580940Y-101071118D01*
X139593376Y-100992602D01*
X139610500Y-100884486D01*
X139610500Y-100695513D01*
X139580940Y-100508881D01*
X139542229Y-100389744D01*
X139522547Y-100329168D01*
X139522545Y-100329165D01*
X139522545Y-100329163D01*
X139436759Y-100160800D01*
X139325690Y-100007927D01*
X139192073Y-99874310D01*
X139100613Y-99807860D01*
X139039194Y-99763236D01*
X138943303Y-99714377D01*
X138892507Y-99666403D01*
X138875712Y-99598582D01*
X138898250Y-99532447D01*
X138943303Y-99493408D01*
X139117554Y-99404622D01*
X139192194Y-99350392D01*
X139192195Y-99350392D01*
X138567293Y-98725490D01*
X138602993Y-98715925D01*
X138717007Y-98650099D01*
X138810099Y-98557007D01*
X138875925Y-98442993D01*
X138885490Y-98407293D01*
X139510392Y-99032195D01*
X139510392Y-99032194D01*
X139564622Y-98957554D01*
X139661095Y-98768217D01*
X139726757Y-98566130D01*
X139726757Y-98566127D01*
X139760000Y-98356246D01*
X139760000Y-98143753D01*
X139726757Y-97933872D01*
X139726757Y-97933869D01*
X139661095Y-97731782D01*
X139564620Y-97542442D01*
X139510393Y-97467804D01*
X139510391Y-97467804D01*
X138885490Y-98092705D01*
X138875925Y-98057007D01*
X138810099Y-97942993D01*
X138717007Y-97849901D01*
X138602993Y-97784075D01*
X138567293Y-97774509D01*
X139192194Y-97149606D01*
X139117550Y-97095375D01*
X138943303Y-97006591D01*
X138892507Y-96958616D01*
X138875712Y-96890795D01*
X138898250Y-96824660D01*
X138943302Y-96785621D01*
X139039199Y-96736760D01*
X139192073Y-96625690D01*
X139325690Y-96492073D01*
X139436760Y-96339199D01*
X139522547Y-96170832D01*
X139580940Y-95991118D01*
X139610500Y-95804486D01*
X139610500Y-95615513D01*
X139580940Y-95428881D01*
X139522545Y-95249163D01*
X139477290Y-95160347D01*
X139436760Y-95080801D01*
X139325690Y-94927927D01*
X139192073Y-94794310D01*
X139039199Y-94683240D01*
X138870836Y-94597454D01*
X138796472Y-94573291D01*
X138749195Y-94557930D01*
X138691521Y-94518493D01*
X138664323Y-94454134D01*
X138676238Y-94385288D01*
X138723482Y-94333812D01*
X138749194Y-94322069D01*
X138870832Y-94282547D01*
X139039199Y-94196760D01*
X139192073Y-94085690D01*
X139325690Y-93952073D01*
X139436760Y-93799199D01*
X139522547Y-93630832D01*
X139580940Y-93451118D01*
X139596951Y-93350029D01*
X139610500Y-93264486D01*
X139610500Y-93075513D01*
X139580940Y-92888881D01*
X139548546Y-92789185D01*
X139522547Y-92709168D01*
X139522545Y-92709165D01*
X139522545Y-92709163D01*
X139454118Y-92574869D01*
X139436760Y-92540801D01*
X139325690Y-92387927D01*
X139192073Y-92254310D01*
X139039199Y-92143240D01*
X138973913Y-92109975D01*
X138870836Y-92057454D01*
X138796472Y-92033291D01*
X138749195Y-92017930D01*
X138691521Y-91978493D01*
X138664323Y-91914134D01*
X138676238Y-91845288D01*
X138723482Y-91793812D01*
X138749194Y-91782069D01*
X138870832Y-91742547D01*
X139039199Y-91656760D01*
X139192073Y-91545690D01*
X139325690Y-91412073D01*
X139436760Y-91259199D01*
X139522547Y-91090832D01*
X139580940Y-90911118D01*
X139584279Y-90890037D01*
X139610500Y-90724486D01*
X139610500Y-90535513D01*
X139580940Y-90348881D01*
X139522545Y-90169163D01*
X139456317Y-90039184D01*
X139436760Y-90000801D01*
X139325690Y-89847927D01*
X139192073Y-89714310D01*
X139039199Y-89603240D01*
X138870836Y-89517454D01*
X138796472Y-89493291D01*
X138749195Y-89477930D01*
X138691521Y-89438493D01*
X138664323Y-89374134D01*
X138676238Y-89305288D01*
X138723482Y-89253812D01*
X138749194Y-89242069D01*
X138870832Y-89202547D01*
X139039199Y-89116760D01*
X139192073Y-89005690D01*
X139325690Y-88872073D01*
X139436760Y-88719199D01*
X139522547Y-88550832D01*
X139580940Y-88371118D01*
X139581733Y-88366112D01*
X139610500Y-88184486D01*
X139610500Y-87995513D01*
X139580940Y-87808881D01*
X139522545Y-87629163D01*
X139466739Y-87519639D01*
X139436760Y-87460801D01*
X139325690Y-87307927D01*
X139192073Y-87174310D01*
X139100613Y-87107860D01*
X139039194Y-87063236D01*
X138943303Y-87014377D01*
X138892507Y-86966403D01*
X138875712Y-86898582D01*
X138898250Y-86832447D01*
X138943303Y-86793408D01*
X139117554Y-86704622D01*
X139192194Y-86650392D01*
X139192195Y-86650392D01*
X138567293Y-86025490D01*
X138602993Y-86015925D01*
X138717007Y-85950099D01*
X138810099Y-85857007D01*
X138875925Y-85742993D01*
X138885490Y-85707293D01*
X139510392Y-86332195D01*
X139510392Y-86332194D01*
X139564622Y-86257554D01*
X139661095Y-86068217D01*
X139726757Y-85866130D01*
X139726757Y-85866127D01*
X139760000Y-85656246D01*
X139760000Y-85443753D01*
X139726757Y-85233872D01*
X139726757Y-85233869D01*
X139661095Y-85031782D01*
X139564620Y-84842442D01*
X139510393Y-84767804D01*
X139510391Y-84767804D01*
X138885490Y-85392705D01*
X138875925Y-85357007D01*
X138810099Y-85242993D01*
X138717007Y-85149901D01*
X138602993Y-85084075D01*
X138567293Y-85074509D01*
X139192194Y-84449606D01*
X139117550Y-84395375D01*
X138943303Y-84306591D01*
X138892507Y-84258616D01*
X138875712Y-84190795D01*
X138898250Y-84124660D01*
X138943302Y-84085621D01*
X139039199Y-84036760D01*
X139192073Y-83925690D01*
X139325690Y-83792073D01*
X139436760Y-83639199D01*
X139522547Y-83470832D01*
X139580940Y-83291118D01*
X139610500Y-83104486D01*
X139610500Y-82915513D01*
X139580940Y-82728881D01*
X139522545Y-82549163D01*
X139436759Y-82380800D01*
X139325690Y-82227927D01*
X139192073Y-82094310D01*
X139039199Y-81983240D01*
X138870836Y-81897454D01*
X138796472Y-81873291D01*
X138749195Y-81857930D01*
X138691521Y-81818493D01*
X138664323Y-81754134D01*
X138676238Y-81685288D01*
X138723482Y-81633812D01*
X138749194Y-81622069D01*
X138870832Y-81582547D01*
X139039199Y-81496760D01*
X139192073Y-81385690D01*
X139325690Y-81252073D01*
X139436760Y-81099199D01*
X139522547Y-80930832D01*
X139580940Y-80751118D01*
X139595102Y-80661703D01*
X139610500Y-80564486D01*
X139610500Y-80375513D01*
X139580940Y-80188881D01*
X139534441Y-80045773D01*
X139522547Y-80009168D01*
X139522545Y-80009165D01*
X139522545Y-80009163D01*
X139436759Y-79840800D01*
X139325690Y-79687927D01*
X139192073Y-79554310D01*
X139039199Y-79443240D01*
X138870836Y-79357454D01*
X138796472Y-79333291D01*
X138749195Y-79317930D01*
X138691521Y-79278493D01*
X138664323Y-79214134D01*
X138676238Y-79145288D01*
X138723482Y-79093812D01*
X138749194Y-79082069D01*
X138870832Y-79042547D01*
X139039199Y-78956760D01*
X139192073Y-78845690D01*
X139325690Y-78712073D01*
X139436760Y-78559199D01*
X139522547Y-78390832D01*
X139580940Y-78211118D01*
X139584325Y-78189744D01*
X139610500Y-78024486D01*
X139610500Y-77835513D01*
X139580940Y-77648881D01*
X139547728Y-77546666D01*
X139522547Y-77469168D01*
X139522545Y-77469165D01*
X139522545Y-77469163D01*
X139461573Y-77349500D01*
X139436760Y-77300801D01*
X139325690Y-77147927D01*
X139192073Y-77014310D01*
X139039199Y-76903240D01*
X138870836Y-76817454D01*
X138796472Y-76793291D01*
X138749195Y-76777930D01*
X138691521Y-76738493D01*
X138664323Y-76674134D01*
X138676238Y-76605288D01*
X138723482Y-76553812D01*
X138749194Y-76542069D01*
X138870832Y-76502547D01*
X139039199Y-76416760D01*
X139192073Y-76305690D01*
X139325690Y-76172073D01*
X139436760Y-76019199D01*
X139522547Y-75850832D01*
X139580940Y-75671118D01*
X139581803Y-75665668D01*
X139610500Y-75484486D01*
X139610500Y-75295513D01*
X139580940Y-75108881D01*
X139522545Y-74929163D01*
X139461961Y-74810261D01*
X139436760Y-74760801D01*
X139325690Y-74607927D01*
X139192073Y-74474310D01*
X139054693Y-74374497D01*
X139039194Y-74363236D01*
X138943303Y-74314377D01*
X138892507Y-74266403D01*
X138875712Y-74198582D01*
X138898250Y-74132447D01*
X138943303Y-74093408D01*
X139117554Y-74004622D01*
X139192194Y-73950392D01*
X139192195Y-73950392D01*
X138567293Y-73325490D01*
X138602993Y-73315925D01*
X138717007Y-73250099D01*
X138810099Y-73157007D01*
X138875925Y-73042993D01*
X138885490Y-73007293D01*
X139510392Y-73632195D01*
X139510392Y-73632194D01*
X139564622Y-73557554D01*
X139661095Y-73368217D01*
X139726757Y-73166130D01*
X139726757Y-73166127D01*
X139760000Y-72956246D01*
X139760000Y-72743753D01*
X139726757Y-72533872D01*
X139726757Y-72533869D01*
X139661094Y-72331780D01*
X139599010Y-72209934D01*
X139599009Y-72209933D01*
X139564620Y-72142442D01*
X139510393Y-72067804D01*
X139510391Y-72067804D01*
X138885490Y-72692705D01*
X138875925Y-72657007D01*
X138810099Y-72542993D01*
X138717007Y-72449901D01*
X138602993Y-72384075D01*
X138567293Y-72374509D01*
X139192194Y-71749606D01*
X139117550Y-71695375D01*
X138943303Y-71606591D01*
X138892507Y-71558616D01*
X138875712Y-71490795D01*
X138898250Y-71424660D01*
X138943302Y-71385621D01*
X139039199Y-71336760D01*
X139046433Y-71331504D01*
X141950000Y-71331504D01*
X141950000Y-71755000D01*
X142650000Y-71755000D01*
X142650000Y-72205000D01*
X141950000Y-72205000D01*
X141950000Y-72628495D01*
X141988427Y-72821681D01*
X141988430Y-72821693D01*
X142063807Y-73003671D01*
X142063814Y-73003684D01*
X142173248Y-73167462D01*
X142173251Y-73167466D01*
X142312533Y-73306748D01*
X142312537Y-73306751D01*
X142476315Y-73416185D01*
X142476328Y-73416192D01*
X142658307Y-73491569D01*
X142658319Y-73491572D01*
X142724999Y-73504836D01*
X142725000Y-73504836D01*
X142725000Y-72729265D01*
X142765795Y-72770060D01*
X142834204Y-72809556D01*
X142910504Y-72830000D01*
X142989496Y-72830000D01*
X143065796Y-72809556D01*
X143134205Y-72770060D01*
X143175000Y-72729265D01*
X143175000Y-73504836D01*
X143241680Y-73491572D01*
X143241692Y-73491569D01*
X143423671Y-73416192D01*
X143423684Y-73416185D01*
X143587462Y-73306751D01*
X143587466Y-73306748D01*
X143726748Y-73167466D01*
X143726751Y-73167462D01*
X143836185Y-73003684D01*
X143836192Y-73003671D01*
X143911569Y-72821693D01*
X143911572Y-72821681D01*
X143949999Y-72628495D01*
X143950000Y-72628492D01*
X143950000Y-72205000D01*
X143250000Y-72205000D01*
X143250000Y-71755000D01*
X143821223Y-71755000D01*
X143888262Y-71774685D01*
X143913476Y-71797879D01*
X143913738Y-71797618D01*
X143919484Y-71803364D01*
X143919485Y-71803365D01*
X144026635Y-71910515D01*
X144157865Y-71986281D01*
X144304234Y-72025500D01*
X144304236Y-72025500D01*
X144455764Y-72025500D01*
X144455766Y-72025500D01*
X144602135Y-71986281D01*
X144733365Y-71910515D01*
X144840515Y-71803365D01*
X144916281Y-71672135D01*
X144955500Y-71525766D01*
X144955500Y-71374234D01*
X149584500Y-71374234D01*
X149584500Y-71525766D01*
X149602819Y-71594134D01*
X149623719Y-71672136D01*
X149638612Y-71697931D01*
X149699485Y-71803365D01*
X149806635Y-71910515D01*
X149937865Y-71986281D01*
X150084234Y-72025500D01*
X150084236Y-72025500D01*
X150235764Y-72025500D01*
X150235766Y-72025500D01*
X150382135Y-71986281D01*
X150513365Y-71910515D01*
X150620515Y-71803365D01*
X150620515Y-71803364D01*
X150626262Y-71797618D01*
X150627195Y-71798551D01*
X150676836Y-71762308D01*
X150718777Y-71755000D01*
X151290000Y-71755000D01*
X151290000Y-72205000D01*
X150590000Y-72205000D01*
X150590000Y-72628495D01*
X150628427Y-72821681D01*
X150628430Y-72821693D01*
X150703807Y-73003671D01*
X150703814Y-73003684D01*
X150813248Y-73167462D01*
X150813251Y-73167466D01*
X150952533Y-73306748D01*
X150952537Y-73306751D01*
X151116315Y-73416185D01*
X151116328Y-73416192D01*
X151298307Y-73491569D01*
X151298319Y-73491572D01*
X151364999Y-73504836D01*
X151365000Y-73504836D01*
X151365000Y-72729265D01*
X151405795Y-72770060D01*
X151474204Y-72809556D01*
X151550504Y-72830000D01*
X151629496Y-72830000D01*
X151705796Y-72809556D01*
X151774205Y-72770060D01*
X151815000Y-72729265D01*
X151815000Y-73504836D01*
X151881680Y-73491572D01*
X151881692Y-73491569D01*
X152063671Y-73416192D01*
X152063684Y-73416185D01*
X152227462Y-73306751D01*
X152227466Y-73306748D01*
X152366748Y-73167466D01*
X152366751Y-73167462D01*
X152476185Y-73003684D01*
X152476192Y-73003671D01*
X152551569Y-72821693D01*
X152551572Y-72821681D01*
X152589999Y-72628495D01*
X152590000Y-72628492D01*
X152590000Y-72205000D01*
X151890000Y-72205000D01*
X151890000Y-71755000D01*
X152590000Y-71755000D01*
X152590000Y-71331508D01*
X152589999Y-71331504D01*
X152551572Y-71138318D01*
X152551569Y-71138306D01*
X152476192Y-70956328D01*
X152476185Y-70956315D01*
X152366751Y-70792537D01*
X152366748Y-70792533D01*
X152227466Y-70653251D01*
X152227462Y-70653248D01*
X152063684Y-70543814D01*
X152063671Y-70543807D01*
X151881691Y-70468429D01*
X151881683Y-70468427D01*
X151815000Y-70455162D01*
X151815000Y-71230735D01*
X151774205Y-71189940D01*
X151705796Y-71150444D01*
X151629496Y-71130000D01*
X151550504Y-71130000D01*
X151474204Y-71150444D01*
X151405795Y-71189940D01*
X151365000Y-71230735D01*
X151365000Y-70455163D01*
X151364999Y-70455162D01*
X151298316Y-70468427D01*
X151298308Y-70468429D01*
X151116328Y-70543807D01*
X151116315Y-70543814D01*
X150952537Y-70653248D01*
X150952533Y-70653251D01*
X150813248Y-70792536D01*
X150700427Y-70961387D01*
X150699003Y-70960435D01*
X150655742Y-71004451D01*
X150587600Y-71019892D01*
X150521927Y-70996041D01*
X150519907Y-70994306D01*
X150519811Y-70994432D01*
X150513367Y-70989487D01*
X150513365Y-70989485D01*
X150447750Y-70951602D01*
X150382136Y-70913719D01*
X150308950Y-70894109D01*
X150235766Y-70874500D01*
X150084234Y-70874500D01*
X149937863Y-70913719D01*
X149806635Y-70989485D01*
X149806632Y-70989487D01*
X149699487Y-71096632D01*
X149699485Y-71096635D01*
X149623719Y-71227863D01*
X149600585Y-71314204D01*
X149584500Y-71374234D01*
X144955500Y-71374234D01*
X144916281Y-71227865D01*
X144840515Y-71096635D01*
X144733365Y-70989485D01*
X144667750Y-70951602D01*
X144602136Y-70913719D01*
X144528950Y-70894109D01*
X144455766Y-70874500D01*
X144304234Y-70874500D01*
X144157863Y-70913719D01*
X144026635Y-70989485D01*
X144020189Y-70994432D01*
X144018099Y-70991709D01*
X143970217Y-71017466D01*
X143900558Y-71012043D01*
X143844888Y-70969821D01*
X143839299Y-70960976D01*
X143726751Y-70792537D01*
X143726748Y-70792533D01*
X143587466Y-70653251D01*
X143587462Y-70653248D01*
X143423684Y-70543814D01*
X143423671Y-70543807D01*
X143241691Y-70468429D01*
X143241683Y-70468427D01*
X143175000Y-70455162D01*
X143175000Y-71230735D01*
X143134205Y-71189940D01*
X143065796Y-71150444D01*
X142989496Y-71130000D01*
X142910504Y-71130000D01*
X142834204Y-71150444D01*
X142765795Y-71189940D01*
X142725000Y-71230735D01*
X142725000Y-70455163D01*
X142724999Y-70455162D01*
X142658316Y-70468427D01*
X142658308Y-70468429D01*
X142476328Y-70543807D01*
X142476315Y-70543814D01*
X142312537Y-70653248D01*
X142312533Y-70653251D01*
X142173251Y-70792533D01*
X142173248Y-70792537D01*
X142063814Y-70956315D01*
X142063807Y-70956328D01*
X141988430Y-71138306D01*
X141988427Y-71138318D01*
X141950000Y-71331504D01*
X139046433Y-71331504D01*
X139192073Y-71225690D01*
X139325690Y-71092073D01*
X139436760Y-70939199D01*
X139522547Y-70770832D01*
X139580940Y-70591118D01*
X139600372Y-70468429D01*
X139610500Y-70404486D01*
X139610500Y-70215513D01*
X139580940Y-70028881D01*
X139522545Y-69849163D01*
X139436759Y-69680800D01*
X139325690Y-69527927D01*
X139192073Y-69394310D01*
X139039199Y-69283240D01*
X138885615Y-69204985D01*
X138834819Y-69157010D01*
X138818024Y-69089189D01*
X138840561Y-69023054D01*
X138895277Y-68979603D01*
X138941910Y-68970500D01*
X139293261Y-68970500D01*
X139317117Y-68967024D01*
X139361393Y-68960573D01*
X139466483Y-68909198D01*
X139549198Y-68826483D01*
X139600573Y-68721393D01*
X139610500Y-68653260D01*
X139610500Y-67024500D01*
X139630185Y-66957461D01*
X139682989Y-66911706D01*
X139734500Y-66900500D01*
X141930349Y-66900500D01*
X141997388Y-66920185D01*
G37*
%TD.AperFunction*%
%TA.AperFunction,Conductor*%
G36*
X137944075Y-111142993D02*
G01*
X138009901Y-111257007D01*
X138102993Y-111350099D01*
X138217007Y-111415925D01*
X138252706Y-111425490D01*
X137627804Y-112050391D01*
X137627804Y-112050393D01*
X137702442Y-112104620D01*
X137876696Y-112193408D01*
X137927492Y-112241383D01*
X137944287Y-112309204D01*
X137921750Y-112375339D01*
X137876697Y-112414377D01*
X137780803Y-112463238D01*
X137704364Y-112518775D01*
X137627927Y-112574310D01*
X137627925Y-112574312D01*
X137627924Y-112574312D01*
X137512181Y-112690056D01*
X137450858Y-112723541D01*
X137381166Y-112718557D01*
X137325233Y-112676685D01*
X137300816Y-112611221D01*
X137300500Y-112602375D01*
X137300500Y-111792664D01*
X137320185Y-111725625D01*
X137336819Y-111704983D01*
X137934509Y-111107292D01*
X137944075Y-111142993D01*
G37*
%TD.AperFunction*%
%TA.AperFunction,Conductor*%
G36*
X137505703Y-109203912D02*
G01*
X137512181Y-109209944D01*
X137627927Y-109325690D01*
X137780801Y-109436760D01*
X137847796Y-109470895D01*
X137876696Y-109485621D01*
X137927492Y-109533596D01*
X137944287Y-109601417D01*
X137921750Y-109667552D01*
X137876696Y-109706590D01*
X137702457Y-109795370D01*
X137702445Y-109795377D01*
X137627804Y-109849605D01*
X137627804Y-109849606D01*
X138252707Y-110474509D01*
X138217007Y-110484075D01*
X138102993Y-110549901D01*
X138009901Y-110642993D01*
X137944075Y-110757007D01*
X137934509Y-110792706D01*
X137336819Y-110195016D01*
X137303334Y-110133693D01*
X137300500Y-110107335D01*
X137300500Y-109297625D01*
X137320185Y-109230586D01*
X137372989Y-109184831D01*
X137442147Y-109174887D01*
X137505703Y-109203912D01*
G37*
%TD.AperFunction*%
%TA.AperFunction,Conductor*%
G36*
X137944075Y-98442993D02*
G01*
X138009901Y-98557007D01*
X138102993Y-98650099D01*
X138217007Y-98715925D01*
X138252706Y-98725490D01*
X137627804Y-99350391D01*
X137627804Y-99350393D01*
X137702442Y-99404620D01*
X137876696Y-99493408D01*
X137927492Y-99541383D01*
X137944287Y-99609204D01*
X137921750Y-99675339D01*
X137876697Y-99714377D01*
X137780803Y-99763238D01*
X137709501Y-99815043D01*
X137627927Y-99874310D01*
X137627925Y-99874312D01*
X137627924Y-99874312D01*
X137512181Y-99990056D01*
X137450858Y-100023541D01*
X137381166Y-100018557D01*
X137325233Y-99976685D01*
X137300816Y-99911221D01*
X137300500Y-99902375D01*
X137300500Y-99092664D01*
X137320185Y-99025625D01*
X137336819Y-99004983D01*
X137934509Y-98407292D01*
X137944075Y-98442993D01*
G37*
%TD.AperFunction*%
%TA.AperFunction,Conductor*%
G36*
X137505703Y-96503912D02*
G01*
X137512181Y-96509944D01*
X137627927Y-96625690D01*
X137780801Y-96736760D01*
X137847796Y-96770895D01*
X137876696Y-96785621D01*
X137927492Y-96833596D01*
X137944287Y-96901417D01*
X137921750Y-96967552D01*
X137876696Y-97006590D01*
X137702457Y-97095370D01*
X137702445Y-97095377D01*
X137627804Y-97149605D01*
X137627804Y-97149606D01*
X138252707Y-97774509D01*
X138217007Y-97784075D01*
X138102993Y-97849901D01*
X138009901Y-97942993D01*
X137944075Y-98057007D01*
X137934509Y-98092706D01*
X137336819Y-97495016D01*
X137303334Y-97433693D01*
X137300500Y-97407335D01*
X137300500Y-96597625D01*
X137320185Y-96530586D01*
X137372989Y-96484831D01*
X137442147Y-96474887D01*
X137505703Y-96503912D01*
G37*
%TD.AperFunction*%
%TA.AperFunction,Conductor*%
G36*
X150068834Y-90770783D02*
G01*
X150124767Y-90812655D01*
X150149184Y-90878119D01*
X150149500Y-90886965D01*
X150149500Y-97942064D01*
X150129815Y-98009103D01*
X150077011Y-98054858D01*
X150007853Y-98064802D01*
X149944297Y-98035777D01*
X149922398Y-98010955D01*
X149905276Y-97985331D01*
X149905273Y-97985327D01*
X149814672Y-97894726D01*
X149814668Y-97894723D01*
X149708133Y-97823538D01*
X149708124Y-97823533D01*
X149589744Y-97774499D01*
X149589738Y-97774497D01*
X149464071Y-97749500D01*
X149464069Y-97749500D01*
X149335931Y-97749500D01*
X149335929Y-97749500D01*
X149210261Y-97774497D01*
X149210251Y-97774500D01*
X149123371Y-97810487D01*
X149091276Y-97813937D01*
X149059367Y-97818816D01*
X149056140Y-97817715D01*
X149053902Y-97817956D01*
X149025415Y-97809175D01*
X149019511Y-97806542D01*
X148973887Y-97780201D01*
X148949673Y-97773713D01*
X148940212Y-97771178D01*
X148940208Y-97771176D01*
X148878581Y-97754663D01*
X148859309Y-97749500D01*
X148859308Y-97749500D01*
X148437965Y-97749500D01*
X148370926Y-97729815D01*
X148350284Y-97713181D01*
X145885819Y-95248716D01*
X145852334Y-95187393D01*
X145849500Y-95161035D01*
X145849500Y-94173500D01*
X145869185Y-94106461D01*
X145921989Y-94060706D01*
X145973500Y-94049500D01*
X146064071Y-94049500D01*
X146150502Y-94032307D01*
X146189744Y-94024501D01*
X146308127Y-93975465D01*
X146414669Y-93904276D01*
X146505276Y-93813669D01*
X146576465Y-93707127D01*
X146625501Y-93588744D01*
X146639015Y-93520807D01*
X146650500Y-93463071D01*
X146650500Y-93334928D01*
X146625502Y-93209261D01*
X146625501Y-93209260D01*
X146625501Y-93209256D01*
X146576465Y-93090873D01*
X146576464Y-93090872D01*
X146576461Y-93090866D01*
X146505276Y-92984331D01*
X146505273Y-92984327D01*
X146486819Y-92965873D01*
X146453334Y-92904550D01*
X146450500Y-92878192D01*
X146450500Y-92197656D01*
X146470185Y-92130617D01*
X146486815Y-92109979D01*
X147217556Y-91379237D01*
X147278879Y-91345753D01*
X147348571Y-91350737D01*
X147374128Y-91363817D01*
X147429366Y-91400726D01*
X147429375Y-91400731D01*
X147456192Y-91411839D01*
X147547756Y-91449766D01*
X147547760Y-91449766D01*
X147547761Y-91449767D01*
X147673428Y-91474765D01*
X147673431Y-91474765D01*
X147801571Y-91474765D01*
X147886115Y-91457947D01*
X147927244Y-91449766D01*
X148045627Y-91400730D01*
X148090616Y-91370668D01*
X148157290Y-91349791D01*
X148224670Y-91368274D01*
X148228377Y-91370656D01*
X148255976Y-91389097D01*
X148374359Y-91438133D01*
X148374363Y-91438133D01*
X148374364Y-91438134D01*
X148500031Y-91463132D01*
X148500034Y-91463132D01*
X148628174Y-91463132D01*
X148743033Y-91440284D01*
X148753847Y-91438133D01*
X148872230Y-91389097D01*
X148978772Y-91317908D01*
X148981180Y-91315500D01*
X148997230Y-91299451D01*
X149058553Y-91265966D01*
X149084911Y-91263132D01*
X149346676Y-91263132D01*
X149346677Y-91263132D01*
X149417948Y-91244033D01*
X149437034Y-91238920D01*
X149437035Y-91238919D01*
X149437041Y-91238918D01*
X149461255Y-91232431D01*
X149563982Y-91173121D01*
X149937819Y-90799284D01*
X149999142Y-90765799D01*
X150068834Y-90770783D01*
G37*
%TD.AperFunction*%
%TA.AperFunction,Conductor*%
G36*
X137944075Y-85742993D02*
G01*
X138009901Y-85857007D01*
X138102993Y-85950099D01*
X138217007Y-86015925D01*
X138252706Y-86025490D01*
X137627804Y-86650391D01*
X137627804Y-86650393D01*
X137702442Y-86704620D01*
X137876696Y-86793408D01*
X137927492Y-86841383D01*
X137944287Y-86909204D01*
X137921750Y-86975339D01*
X137876697Y-87014377D01*
X137780803Y-87063238D01*
X137704364Y-87118775D01*
X137627927Y-87174310D01*
X137627925Y-87174312D01*
X137627924Y-87174312D01*
X137512181Y-87290056D01*
X137450858Y-87323541D01*
X137381166Y-87318557D01*
X137325233Y-87276685D01*
X137300816Y-87211221D01*
X137300500Y-87202375D01*
X137300500Y-86392664D01*
X137320185Y-86325625D01*
X137336819Y-86304983D01*
X137934509Y-85707292D01*
X137944075Y-85742993D01*
G37*
%TD.AperFunction*%
%TA.AperFunction,Conductor*%
G36*
X137505703Y-83803912D02*
G01*
X137512181Y-83809944D01*
X137627927Y-83925690D01*
X137780801Y-84036760D01*
X137847796Y-84070895D01*
X137876696Y-84085621D01*
X137927492Y-84133596D01*
X137944287Y-84201417D01*
X137921750Y-84267552D01*
X137876696Y-84306590D01*
X137702457Y-84395370D01*
X137702445Y-84395377D01*
X137627804Y-84449605D01*
X137627804Y-84449606D01*
X138252707Y-85074509D01*
X138217007Y-85084075D01*
X138102993Y-85149901D01*
X138009901Y-85242993D01*
X137944075Y-85357007D01*
X137934509Y-85392706D01*
X137336819Y-84795016D01*
X137303334Y-84733693D01*
X137300500Y-84707335D01*
X137300500Y-83897625D01*
X137320185Y-83830586D01*
X137372989Y-83784831D01*
X137442147Y-83774887D01*
X137505703Y-83803912D01*
G37*
%TD.AperFunction*%
%TA.AperFunction,Conductor*%
G36*
X137944075Y-73042993D02*
G01*
X138009901Y-73157007D01*
X138102993Y-73250099D01*
X138217007Y-73315925D01*
X138252706Y-73325490D01*
X137627804Y-73950391D01*
X137627804Y-73950393D01*
X137702442Y-74004620D01*
X137876696Y-74093408D01*
X137927492Y-74141383D01*
X137944287Y-74209204D01*
X137921750Y-74275339D01*
X137876697Y-74314377D01*
X137780803Y-74363238D01*
X137765307Y-74374497D01*
X137627927Y-74474310D01*
X137627925Y-74474312D01*
X137627924Y-74474312D01*
X137512181Y-74590056D01*
X137450858Y-74623541D01*
X137381166Y-74618557D01*
X137325233Y-74576685D01*
X137300816Y-74511221D01*
X137300500Y-74502375D01*
X137300500Y-73692664D01*
X137320185Y-73625625D01*
X137336819Y-73604983D01*
X137934509Y-73007292D01*
X137944075Y-73042993D01*
G37*
%TD.AperFunction*%
%TA.AperFunction,Conductor*%
G36*
X137505703Y-71103912D02*
G01*
X137512181Y-71109944D01*
X137627927Y-71225690D01*
X137780801Y-71336760D01*
X137847796Y-71370895D01*
X137876696Y-71385621D01*
X137927492Y-71433596D01*
X137944287Y-71501417D01*
X137921750Y-71567552D01*
X137876696Y-71606590D01*
X137702457Y-71695370D01*
X137702445Y-71695377D01*
X137627804Y-71749605D01*
X137627804Y-71749606D01*
X138252707Y-72374509D01*
X138217007Y-72384075D01*
X138102993Y-72449901D01*
X138009901Y-72542993D01*
X137944075Y-72657007D01*
X137934509Y-72692706D01*
X137336819Y-72095016D01*
X137303334Y-72033693D01*
X137300500Y-72007335D01*
X137300500Y-71197625D01*
X137320185Y-71130586D01*
X137372989Y-71084831D01*
X137442147Y-71074887D01*
X137505703Y-71103912D01*
G37*
%TD.AperFunction*%
%TD*%
M02*
