%TF.GenerationSoftware,KiCad,Pcbnew,9.0.6*%
%TF.CreationDate,2026-03-27T12:53:51-05:00*%
%TF.ProjectId,Custom Dev Board,43757374-6f6d-4204-9465-7620426f6172,rev?*%
%TF.SameCoordinates,Original*%
%TF.FileFunction,Legend,Bot*%
%TF.FilePolarity,Positive*%
%FSLAX46Y46*%
G04 Gerber Fmt 4.6, Leading zero omitted, Abs format (unit mm)*
G04 Created by KiCad (PCBNEW 9.0.6) date 2026-03-27 12:53:51*
%MOMM*%
%LPD*%
G01*
G04 APERTURE LIST*
%ADD10C,0.100000*%
%ADD11C,0.000000*%
G04 APERTURE END LIST*
D10*
X149072419Y-73703884D02*
X148072419Y-73703884D01*
X148548609Y-73703884D02*
X148548609Y-74275312D01*
X149072419Y-74275312D02*
X148072419Y-74275312D01*
X148072419Y-74941979D02*
X148072419Y-75132455D01*
X148072419Y-75132455D02*
X148120038Y-75227693D01*
X148120038Y-75227693D02*
X148215276Y-75322931D01*
X148215276Y-75322931D02*
X148405752Y-75370550D01*
X148405752Y-75370550D02*
X148739085Y-75370550D01*
X148739085Y-75370550D02*
X148929561Y-75322931D01*
X148929561Y-75322931D02*
X149024800Y-75227693D01*
X149024800Y-75227693D02*
X149072419Y-75132455D01*
X149072419Y-75132455D02*
X149072419Y-74941979D01*
X149072419Y-74941979D02*
X149024800Y-74846741D01*
X149024800Y-74846741D02*
X148929561Y-74751503D01*
X148929561Y-74751503D02*
X148739085Y-74703884D01*
X148739085Y-74703884D02*
X148405752Y-74703884D01*
X148405752Y-74703884D02*
X148215276Y-74751503D01*
X148215276Y-74751503D02*
X148120038Y-74846741D01*
X148120038Y-74846741D02*
X148072419Y-74941979D01*
X149072419Y-75799122D02*
X148072419Y-75799122D01*
X148072419Y-75799122D02*
X148072419Y-76180074D01*
X148072419Y-76180074D02*
X148120038Y-76275312D01*
X148120038Y-76275312D02*
X148167657Y-76322931D01*
X148167657Y-76322931D02*
X148262895Y-76370550D01*
X148262895Y-76370550D02*
X148405752Y-76370550D01*
X148405752Y-76370550D02*
X148500990Y-76322931D01*
X148500990Y-76322931D02*
X148548609Y-76275312D01*
X148548609Y-76275312D02*
X148596228Y-76180074D01*
X148596228Y-76180074D02*
X148596228Y-75799122D01*
X148548609Y-76799122D02*
X148548609Y-77132455D01*
X149072419Y-77275312D02*
X149072419Y-76799122D01*
X149072419Y-76799122D02*
X148072419Y-76799122D01*
X148072419Y-76799122D02*
X148072419Y-77275312D01*
X148548609Y-78037217D02*
X148548609Y-77703884D01*
X149072419Y-77703884D02*
X148072419Y-77703884D01*
X148072419Y-77703884D02*
X148072419Y-78180074D01*
X148072419Y-78561027D02*
X148881942Y-78561027D01*
X148881942Y-78561027D02*
X148977180Y-78608646D01*
X148977180Y-78608646D02*
X149024800Y-78656265D01*
X149024800Y-78656265D02*
X149072419Y-78751503D01*
X149072419Y-78751503D02*
X149072419Y-78941979D01*
X149072419Y-78941979D02*
X149024800Y-79037217D01*
X149024800Y-79037217D02*
X148977180Y-79084836D01*
X148977180Y-79084836D02*
X148881942Y-79132455D01*
X148881942Y-79132455D02*
X148072419Y-79132455D01*
X149072419Y-80084836D02*
X149072419Y-79608646D01*
X149072419Y-79608646D02*
X148072419Y-79608646D01*
X149072419Y-80894360D02*
X149072419Y-80418170D01*
X149072419Y-80418170D02*
X148072419Y-80418170D01*
X148596228Y-81418170D02*
X149072419Y-81418170D01*
X148072419Y-81084837D02*
X148596228Y-81418170D01*
X148596228Y-81418170D02*
X148072419Y-81751503D01*
X149072419Y-82846742D02*
X148072419Y-82846742D01*
X148072419Y-83180075D02*
X148072419Y-83751503D01*
X149072419Y-83465789D02*
X148072419Y-83465789D01*
X148072419Y-84751504D02*
X149072419Y-84989599D01*
X149072419Y-84989599D02*
X148358133Y-85180075D01*
X148358133Y-85180075D02*
X149072419Y-85370551D01*
X149072419Y-85370551D02*
X148072419Y-85608647D01*
X148072419Y-86180075D02*
X148072419Y-86370551D01*
X148072419Y-86370551D02*
X148120038Y-86465789D01*
X148120038Y-86465789D02*
X148215276Y-86561027D01*
X148215276Y-86561027D02*
X148405752Y-86608646D01*
X148405752Y-86608646D02*
X148739085Y-86608646D01*
X148739085Y-86608646D02*
X148929561Y-86561027D01*
X148929561Y-86561027D02*
X149024800Y-86465789D01*
X149024800Y-86465789D02*
X149072419Y-86370551D01*
X149072419Y-86370551D02*
X149072419Y-86180075D01*
X149072419Y-86180075D02*
X149024800Y-86084837D01*
X149024800Y-86084837D02*
X148929561Y-85989599D01*
X148929561Y-85989599D02*
X148739085Y-85941980D01*
X148739085Y-85941980D02*
X148405752Y-85941980D01*
X148405752Y-85941980D02*
X148215276Y-85989599D01*
X148215276Y-85989599D02*
X148120038Y-86084837D01*
X148120038Y-86084837D02*
X148072419Y-86180075D01*
X149072419Y-87608646D02*
X148596228Y-87275313D01*
X149072419Y-87037218D02*
X148072419Y-87037218D01*
X148072419Y-87037218D02*
X148072419Y-87418170D01*
X148072419Y-87418170D02*
X148120038Y-87513408D01*
X148120038Y-87513408D02*
X148167657Y-87561027D01*
X148167657Y-87561027D02*
X148262895Y-87608646D01*
X148262895Y-87608646D02*
X148405752Y-87608646D01*
X148405752Y-87608646D02*
X148500990Y-87561027D01*
X148500990Y-87561027D02*
X148548609Y-87513408D01*
X148548609Y-87513408D02*
X148596228Y-87418170D01*
X148596228Y-87418170D02*
X148596228Y-87037218D01*
X149072419Y-88037218D02*
X148072419Y-88037218D01*
X149072419Y-88608646D02*
X148500990Y-88180075D01*
X148072419Y-88608646D02*
X148643847Y-88037218D01*
X149024800Y-88989599D02*
X149072419Y-89132456D01*
X149072419Y-89132456D02*
X149072419Y-89370551D01*
X149072419Y-89370551D02*
X149024800Y-89465789D01*
X149024800Y-89465789D02*
X148977180Y-89513408D01*
X148977180Y-89513408D02*
X148881942Y-89561027D01*
X148881942Y-89561027D02*
X148786704Y-89561027D01*
X148786704Y-89561027D02*
X148691466Y-89513408D01*
X148691466Y-89513408D02*
X148643847Y-89465789D01*
X148643847Y-89465789D02*
X148596228Y-89370551D01*
X148596228Y-89370551D02*
X148548609Y-89180075D01*
X148548609Y-89180075D02*
X148500990Y-89084837D01*
X148500990Y-89084837D02*
X148453371Y-89037218D01*
X148453371Y-89037218D02*
X148358133Y-88989599D01*
X148358133Y-88989599D02*
X148262895Y-88989599D01*
X148262895Y-88989599D02*
X148167657Y-89037218D01*
X148167657Y-89037218D02*
X148120038Y-89084837D01*
X148120038Y-89084837D02*
X148072419Y-89180075D01*
X148072419Y-89180075D02*
X148072419Y-89418170D01*
X148072419Y-89418170D02*
X148120038Y-89561027D01*
X146386704Y-73856265D02*
X146386704Y-74332455D01*
X146672419Y-73761027D02*
X145672419Y-74094360D01*
X145672419Y-74094360D02*
X146672419Y-74427693D01*
X145672419Y-74665789D02*
X146672419Y-74903884D01*
X146672419Y-74903884D02*
X145958133Y-75094360D01*
X145958133Y-75094360D02*
X146672419Y-75284836D01*
X146672419Y-75284836D02*
X145672419Y-75522932D01*
X146148609Y-75903884D02*
X146148609Y-76237217D01*
X146672419Y-76380074D02*
X146672419Y-75903884D01*
X146672419Y-75903884D02*
X145672419Y-75903884D01*
X145672419Y-75903884D02*
X145672419Y-76380074D01*
X146624800Y-76761027D02*
X146672419Y-76903884D01*
X146672419Y-76903884D02*
X146672419Y-77141979D01*
X146672419Y-77141979D02*
X146624800Y-77237217D01*
X146624800Y-77237217D02*
X146577180Y-77284836D01*
X146577180Y-77284836D02*
X146481942Y-77332455D01*
X146481942Y-77332455D02*
X146386704Y-77332455D01*
X146386704Y-77332455D02*
X146291466Y-77284836D01*
X146291466Y-77284836D02*
X146243847Y-77237217D01*
X146243847Y-77237217D02*
X146196228Y-77141979D01*
X146196228Y-77141979D02*
X146148609Y-76951503D01*
X146148609Y-76951503D02*
X146100990Y-76856265D01*
X146100990Y-76856265D02*
X146053371Y-76808646D01*
X146053371Y-76808646D02*
X145958133Y-76761027D01*
X145958133Y-76761027D02*
X145862895Y-76761027D01*
X145862895Y-76761027D02*
X145767657Y-76808646D01*
X145767657Y-76808646D02*
X145720038Y-76856265D01*
X145720038Y-76856265D02*
X145672419Y-76951503D01*
X145672419Y-76951503D02*
X145672419Y-77189598D01*
X145672419Y-77189598D02*
X145720038Y-77332455D01*
X145672419Y-77951503D02*
X145672419Y-78141979D01*
X145672419Y-78141979D02*
X145720038Y-78237217D01*
X145720038Y-78237217D02*
X145815276Y-78332455D01*
X145815276Y-78332455D02*
X146005752Y-78380074D01*
X146005752Y-78380074D02*
X146339085Y-78380074D01*
X146339085Y-78380074D02*
X146529561Y-78332455D01*
X146529561Y-78332455D02*
X146624800Y-78237217D01*
X146624800Y-78237217D02*
X146672419Y-78141979D01*
X146672419Y-78141979D02*
X146672419Y-77951503D01*
X146672419Y-77951503D02*
X146624800Y-77856265D01*
X146624800Y-77856265D02*
X146529561Y-77761027D01*
X146529561Y-77761027D02*
X146339085Y-77713408D01*
X146339085Y-77713408D02*
X146005752Y-77713408D01*
X146005752Y-77713408D02*
X145815276Y-77761027D01*
X145815276Y-77761027D02*
X145720038Y-77856265D01*
X145720038Y-77856265D02*
X145672419Y-77951503D01*
X146672419Y-78808646D02*
X145672419Y-78808646D01*
X145672419Y-78808646D02*
X146386704Y-79141979D01*
X146386704Y-79141979D02*
X145672419Y-79475312D01*
X145672419Y-79475312D02*
X146672419Y-79475312D01*
X146148609Y-79951503D02*
X146148609Y-80284836D01*
X146672419Y-80427693D02*
X146672419Y-79951503D01*
X146672419Y-79951503D02*
X145672419Y-79951503D01*
X145672419Y-79951503D02*
X145672419Y-80427693D01*
X146672419Y-81618170D02*
X145672419Y-81618170D01*
X145672419Y-81618170D02*
X145672419Y-81856265D01*
X145672419Y-81856265D02*
X145720038Y-81999122D01*
X145720038Y-81999122D02*
X145815276Y-82094360D01*
X145815276Y-82094360D02*
X145910514Y-82141979D01*
X145910514Y-82141979D02*
X146100990Y-82189598D01*
X146100990Y-82189598D02*
X146243847Y-82189598D01*
X146243847Y-82189598D02*
X146434323Y-82141979D01*
X146434323Y-82141979D02*
X146529561Y-82094360D01*
X146529561Y-82094360D02*
X146624800Y-81999122D01*
X146624800Y-81999122D02*
X146672419Y-81856265D01*
X146672419Y-81856265D02*
X146672419Y-81618170D01*
X146148609Y-82618170D02*
X146148609Y-82951503D01*
X146672419Y-83094360D02*
X146672419Y-82618170D01*
X146672419Y-82618170D02*
X145672419Y-82618170D01*
X145672419Y-82618170D02*
X145672419Y-83094360D01*
X145672419Y-83380075D02*
X146672419Y-83713408D01*
X146672419Y-83713408D02*
X145672419Y-84046741D01*
X146767657Y-84141980D02*
X146767657Y-84903884D01*
X146148609Y-85475313D02*
X146196228Y-85618170D01*
X146196228Y-85618170D02*
X146243847Y-85665789D01*
X146243847Y-85665789D02*
X146339085Y-85713408D01*
X146339085Y-85713408D02*
X146481942Y-85713408D01*
X146481942Y-85713408D02*
X146577180Y-85665789D01*
X146577180Y-85665789D02*
X146624800Y-85618170D01*
X146624800Y-85618170D02*
X146672419Y-85522932D01*
X146672419Y-85522932D02*
X146672419Y-85141980D01*
X146672419Y-85141980D02*
X145672419Y-85141980D01*
X145672419Y-85141980D02*
X145672419Y-85475313D01*
X145672419Y-85475313D02*
X145720038Y-85570551D01*
X145720038Y-85570551D02*
X145767657Y-85618170D01*
X145767657Y-85618170D02*
X145862895Y-85665789D01*
X145862895Y-85665789D02*
X145958133Y-85665789D01*
X145958133Y-85665789D02*
X146053371Y-85618170D01*
X146053371Y-85618170D02*
X146100990Y-85570551D01*
X146100990Y-85570551D02*
X146148609Y-85475313D01*
X146148609Y-85475313D02*
X146148609Y-85141980D01*
X145672419Y-86332456D02*
X145672419Y-86522932D01*
X145672419Y-86522932D02*
X145720038Y-86618170D01*
X145720038Y-86618170D02*
X145815276Y-86713408D01*
X145815276Y-86713408D02*
X146005752Y-86761027D01*
X146005752Y-86761027D02*
X146339085Y-86761027D01*
X146339085Y-86761027D02*
X146529561Y-86713408D01*
X146529561Y-86713408D02*
X146624800Y-86618170D01*
X146624800Y-86618170D02*
X146672419Y-86522932D01*
X146672419Y-86522932D02*
X146672419Y-86332456D01*
X146672419Y-86332456D02*
X146624800Y-86237218D01*
X146624800Y-86237218D02*
X146529561Y-86141980D01*
X146529561Y-86141980D02*
X146339085Y-86094361D01*
X146339085Y-86094361D02*
X146005752Y-86094361D01*
X146005752Y-86094361D02*
X145815276Y-86141980D01*
X145815276Y-86141980D02*
X145720038Y-86237218D01*
X145720038Y-86237218D02*
X145672419Y-86332456D01*
X146386704Y-87141980D02*
X146386704Y-87618170D01*
X146672419Y-87046742D02*
X145672419Y-87380075D01*
X145672419Y-87380075D02*
X146672419Y-87713408D01*
X146672419Y-88618170D02*
X146196228Y-88284837D01*
X146672419Y-88046742D02*
X145672419Y-88046742D01*
X145672419Y-88046742D02*
X145672419Y-88427694D01*
X145672419Y-88427694D02*
X145720038Y-88522932D01*
X145720038Y-88522932D02*
X145767657Y-88570551D01*
X145767657Y-88570551D02*
X145862895Y-88618170D01*
X145862895Y-88618170D02*
X146005752Y-88618170D01*
X146005752Y-88618170D02*
X146100990Y-88570551D01*
X146100990Y-88570551D02*
X146148609Y-88522932D01*
X146148609Y-88522932D02*
X146196228Y-88427694D01*
X146196228Y-88427694D02*
X146196228Y-88046742D01*
X146672419Y-89046742D02*
X145672419Y-89046742D01*
X145672419Y-89046742D02*
X145672419Y-89284837D01*
X145672419Y-89284837D02*
X145720038Y-89427694D01*
X145720038Y-89427694D02*
X145815276Y-89522932D01*
X145815276Y-89522932D02*
X145910514Y-89570551D01*
X145910514Y-89570551D02*
X146100990Y-89618170D01*
X146100990Y-89618170D02*
X146243847Y-89618170D01*
X146243847Y-89618170D02*
X146434323Y-89570551D01*
X146434323Y-89570551D02*
X146529561Y-89522932D01*
X146529561Y-89522932D02*
X146624800Y-89427694D01*
X146624800Y-89427694D02*
X146672419Y-89284837D01*
X146672419Y-89284837D02*
X146672419Y-89046742D01*
D11*
%TO.C,G\u002A\u002A\u002A*%
G36*
X145732757Y-98313150D02*
G01*
X145841235Y-98345993D01*
X145936793Y-98405966D01*
X146008078Y-98487533D01*
X146027005Y-98522565D01*
X146049376Y-98608218D01*
X146033275Y-98688055D01*
X145978525Y-98763723D01*
X145966703Y-98775339D01*
X145934605Y-98801659D01*
X145899984Y-98816056D01*
X145850662Y-98822087D01*
X145774461Y-98823307D01*
X145773018Y-98823307D01*
X145694170Y-98821465D01*
X145639776Y-98813544D01*
X145595499Y-98795852D01*
X145547000Y-98764692D01*
X145522326Y-98745346D01*
X145465494Y-98688036D01*
X145424748Y-98630067D01*
X145418339Y-98617506D01*
X145398556Y-98569467D01*
X145397382Y-98529207D01*
X145413239Y-98475529D01*
X145418470Y-98461713D01*
X145467701Y-98383683D01*
X145542077Y-98333814D01*
X145644368Y-98310125D01*
X145732757Y-98313150D01*
G37*
G36*
X148830556Y-91151099D02*
G01*
X148906175Y-91170280D01*
X149007643Y-91200565D01*
X149140507Y-91242768D01*
X149156842Y-91248051D01*
X149276763Y-91288849D01*
X149362535Y-91322475D01*
X149417659Y-91350439D01*
X149445639Y-91374250D01*
X149448159Y-91378348D01*
X149454196Y-91394094D01*
X149459300Y-91419200D01*
X149463546Y-91456639D01*
X149467010Y-91509381D01*
X149469766Y-91580399D01*
X149471892Y-91672664D01*
X149473461Y-91789147D01*
X149474550Y-91932820D01*
X149475235Y-92106655D01*
X149475590Y-92313623D01*
X149475692Y-92556697D01*
X149475692Y-93696237D01*
X149427734Y-93744195D01*
X149422778Y-93748976D01*
X149358950Y-93785747D01*
X149291179Y-93786055D01*
X149227836Y-93749671D01*
X149182615Y-93707188D01*
X149182615Y-92637772D01*
X149182615Y-91568356D01*
X149061590Y-91527486D01*
X149001167Y-91507746D01*
X148950237Y-91492465D01*
X148924821Y-91486615D01*
X148923037Y-91499614D01*
X148920948Y-91548961D01*
X148918962Y-91632698D01*
X148917101Y-91748255D01*
X148915384Y-91893060D01*
X148913830Y-92064544D01*
X148912461Y-92260135D01*
X148911296Y-92477264D01*
X148910355Y-92713358D01*
X148909658Y-92965849D01*
X148909225Y-93232164D01*
X148909077Y-93509734D01*
X148909077Y-95532853D01*
X148861119Y-95580811D01*
X148856163Y-95585591D01*
X148792335Y-95622363D01*
X148724564Y-95622671D01*
X148661220Y-95586286D01*
X148616000Y-95543803D01*
X148616000Y-93379858D01*
X148616000Y-91215913D01*
X148669674Y-91173693D01*
X148675610Y-91169132D01*
X148703313Y-91152038D01*
X148734673Y-91142791D01*
X148775238Y-91142207D01*
X148830556Y-91151099D01*
G37*
G36*
X146471026Y-91140640D02*
G01*
X146501028Y-91152879D01*
X146532519Y-91175418D01*
X146584000Y-91215913D01*
X146584000Y-92346307D01*
X146584000Y-93476702D01*
X146532519Y-93517197D01*
X146467310Y-93551573D01*
X146401060Y-93550019D01*
X146338881Y-93509734D01*
X146290923Y-93461776D01*
X146290923Y-92474195D01*
X146290902Y-92423103D01*
X146290447Y-92233661D01*
X146289444Y-92057541D01*
X146287950Y-91898422D01*
X146286024Y-91759983D01*
X146283726Y-91645903D01*
X146281113Y-91559863D01*
X146278244Y-91505540D01*
X146275178Y-91486615D01*
X146252423Y-91491732D01*
X146202863Y-91506480D01*
X146138409Y-91527486D01*
X146017384Y-91568356D01*
X146017384Y-92033321D01*
X146017299Y-92134194D01*
X146016672Y-92259339D01*
X146015123Y-92353802D01*
X146012289Y-92422654D01*
X146007805Y-92470969D01*
X146001309Y-92503822D01*
X145992437Y-92526287D01*
X145980825Y-92543435D01*
X145942745Y-92573845D01*
X145878853Y-92590300D01*
X145813154Y-92580163D01*
X145760867Y-92543435D01*
X145756579Y-92537862D01*
X145746662Y-92520725D01*
X145739002Y-92496958D01*
X145733311Y-92461924D01*
X145729301Y-92410989D01*
X145726684Y-92339518D01*
X145725171Y-92242876D01*
X145724475Y-92116428D01*
X145724307Y-91955538D01*
X145724310Y-91934060D01*
X145724567Y-91776894D01*
X145725436Y-91653683D01*
X145727185Y-91559858D01*
X145730083Y-91490849D01*
X145734395Y-91442087D01*
X145740390Y-91409004D01*
X145748336Y-91387028D01*
X145758500Y-91371592D01*
X145777769Y-91354759D01*
X145841494Y-91320167D01*
X145942350Y-91279682D01*
X146079435Y-91233651D01*
X146251846Y-91182418D01*
X146303745Y-91167867D01*
X146381005Y-91147919D01*
X146433892Y-91138915D01*
X146471026Y-91140640D01*
G37*
G36*
X149997393Y-91621308D02*
G01*
X150080448Y-91659942D01*
X150188739Y-91721933D01*
X150249158Y-91759075D01*
X150348362Y-91822410D01*
X150442123Y-91884737D01*
X150516262Y-91936757D01*
X150648000Y-92033492D01*
X150648000Y-93741043D01*
X150647995Y-93874519D01*
X150647933Y-94156183D01*
X150647756Y-94402312D01*
X150647415Y-94615378D01*
X150646858Y-94797852D01*
X150646035Y-94952208D01*
X150644895Y-95080916D01*
X150643387Y-95186450D01*
X150641459Y-95271282D01*
X150639062Y-95337883D01*
X150636145Y-95388726D01*
X150632655Y-95426283D01*
X150628544Y-95453026D01*
X150623759Y-95471426D01*
X150618251Y-95483958D01*
X150611967Y-95493092D01*
X150583263Y-95519001D01*
X150522666Y-95538638D01*
X150457961Y-95526945D01*
X150400677Y-95484397D01*
X150354923Y-95431205D01*
X150354752Y-93805718D01*
X150354581Y-92180230D01*
X150234367Y-92102077D01*
X150227669Y-92097728D01*
X150167693Y-92059373D01*
X150121200Y-92030621D01*
X150097768Y-92017410D01*
X150096554Y-92017619D01*
X150090619Y-92040045D01*
X150085800Y-92093184D01*
X150082566Y-92170010D01*
X150081384Y-92263497D01*
X150081364Y-92286396D01*
X150080373Y-92386357D01*
X150077293Y-92455432D01*
X150071291Y-92500499D01*
X150061535Y-92528437D01*
X150047192Y-92546122D01*
X150014557Y-92569571D01*
X149943261Y-92590734D01*
X149873639Y-92575249D01*
X149813352Y-92523847D01*
X149805258Y-92502115D01*
X149798083Y-92450615D01*
X149793074Y-92368208D01*
X149790074Y-92252182D01*
X149788929Y-92099827D01*
X149788883Y-92065070D01*
X149789059Y-91939156D01*
X149790222Y-91845248D01*
X149792884Y-91777618D01*
X149797559Y-91730538D01*
X149804761Y-91698282D01*
X149815004Y-91675120D01*
X149828802Y-91655327D01*
X149846324Y-91635675D01*
X149885663Y-91610161D01*
X149934242Y-91605043D01*
X149997393Y-91621308D01*
G37*
G36*
X145334439Y-91620177D02*
G01*
X145371197Y-91655327D01*
X145371989Y-91656338D01*
X145385851Y-91676627D01*
X145396058Y-91700737D01*
X145403166Y-91734544D01*
X145407728Y-91783924D01*
X145410300Y-91854751D01*
X145411436Y-91952902D01*
X145411692Y-92084254D01*
X145411411Y-92157497D01*
X145409109Y-92290925D01*
X145404646Y-92396530D01*
X145398212Y-92470572D01*
X145389999Y-92509310D01*
X145347887Y-92562953D01*
X145287360Y-92588808D01*
X145219037Y-92583710D01*
X145152807Y-92546122D01*
X145149710Y-92543250D01*
X145136297Y-92524156D01*
X145127313Y-92493512D01*
X145121926Y-92444439D01*
X145119304Y-92370060D01*
X145118615Y-92263497D01*
X145118570Y-92244791D01*
X145116963Y-92153927D01*
X145113392Y-92081058D01*
X145108325Y-92033211D01*
X145102231Y-92017410D01*
X145101174Y-92017874D01*
X145074960Y-92032968D01*
X145026696Y-92063021D01*
X144965968Y-92102077D01*
X144846090Y-92180230D01*
X144840698Y-93365151D01*
X144839674Y-93583005D01*
X144838535Y-93796039D01*
X144837320Y-93975631D01*
X144835924Y-94124776D01*
X144834245Y-94246470D01*
X144832177Y-94343707D01*
X144829617Y-94419484D01*
X144826460Y-94476794D01*
X144822603Y-94518634D01*
X144817941Y-94547998D01*
X144812371Y-94567882D01*
X144805787Y-94581280D01*
X144798087Y-94591189D01*
X144746175Y-94623304D01*
X144678120Y-94631576D01*
X144611386Y-94613181D01*
X144610685Y-94612797D01*
X144579435Y-94580955D01*
X144554055Y-94532112D01*
X144552778Y-94526248D01*
X144549146Y-94484200D01*
X144545809Y-94408703D01*
X144542782Y-94303973D01*
X144540081Y-94174226D01*
X144537721Y-94023681D01*
X144535717Y-93856553D01*
X144534086Y-93677060D01*
X144532842Y-93489418D01*
X144532001Y-93297845D01*
X144531579Y-93106556D01*
X144531590Y-92919769D01*
X144532051Y-92741701D01*
X144532977Y-92576569D01*
X144534382Y-92428589D01*
X144536284Y-92301979D01*
X144538696Y-92200954D01*
X144541635Y-92129732D01*
X144545117Y-92092531D01*
X144555576Y-92064653D01*
X144590607Y-92017846D01*
X144651260Y-91962102D01*
X144739966Y-91895491D01*
X144859156Y-91816079D01*
X145011260Y-91721933D01*
X145067819Y-91688573D01*
X145163077Y-91638152D01*
X145235711Y-91610603D01*
X145291055Y-91604940D01*
X145334439Y-91620177D01*
G37*
G36*
X145712436Y-97382248D02*
G01*
X145956002Y-97426372D01*
X146187937Y-97501609D01*
X146404639Y-97605378D01*
X146602510Y-97735096D01*
X146777946Y-97888181D01*
X146927347Y-98062051D01*
X147047113Y-98254123D01*
X147133642Y-98461816D01*
X147138910Y-98479328D01*
X147162997Y-98609463D01*
X147169365Y-98755525D01*
X147158137Y-98901186D01*
X147129434Y-99030119D01*
X147110948Y-99081837D01*
X147024279Y-99251261D01*
X146905051Y-99401922D01*
X146756068Y-99530732D01*
X146580134Y-99634606D01*
X146444129Y-99692260D01*
X146289265Y-99737313D01*
X146123249Y-99762540D01*
X145933522Y-99770583D01*
X145908918Y-99770470D01*
X145643881Y-99749143D01*
X145391330Y-99691556D01*
X145153350Y-99598506D01*
X144932026Y-99470792D01*
X144729441Y-99309214D01*
X144721184Y-99301532D01*
X144558917Y-99131171D01*
X144434593Y-98958212D01*
X144347132Y-98780474D01*
X144295448Y-98595781D01*
X144278573Y-98403230D01*
X144582932Y-98403230D01*
X144589808Y-98507057D01*
X144629737Y-98676888D01*
X144705898Y-98836439D01*
X144819100Y-98987227D01*
X144970150Y-99130768D01*
X145030209Y-99177679D01*
X145199492Y-99285690D01*
X145378637Y-99368938D01*
X145563704Y-99427843D01*
X145750752Y-99462822D01*
X145935843Y-99474294D01*
X146115036Y-99462678D01*
X146284392Y-99428392D01*
X146439971Y-99371855D01*
X146577834Y-99293484D01*
X146694040Y-99193699D01*
X146784650Y-99072918D01*
X146845724Y-98931559D01*
X146865470Y-98844218D01*
X146871749Y-98688263D01*
X146843651Y-98533797D01*
X146784118Y-98383628D01*
X146696089Y-98240564D01*
X146582502Y-98107413D01*
X146446300Y-97986982D01*
X146290419Y-97882079D01*
X146117802Y-97795511D01*
X145931387Y-97730087D01*
X145734114Y-97688614D01*
X145528923Y-97673900D01*
X145433577Y-97676205D01*
X145228531Y-97701424D01*
X145049598Y-97754756D01*
X144895641Y-97836606D01*
X144765525Y-97947382D01*
X144742205Y-97972599D01*
X144664147Y-98071558D01*
X144614867Y-98168115D01*
X144589438Y-98274572D01*
X144582932Y-98403230D01*
X144278573Y-98403230D01*
X144278461Y-98401954D01*
X144279156Y-98363509D01*
X144304587Y-98172963D01*
X144365822Y-97996950D01*
X144461782Y-97837350D01*
X144591384Y-97696046D01*
X144753549Y-97574919D01*
X144941105Y-97477678D01*
X145149372Y-97409809D01*
X145373567Y-97375540D01*
X145528923Y-97374642D01*
X145616846Y-97374134D01*
X145712436Y-97382248D01*
G37*
G36*
X147828817Y-91003232D02*
G01*
X147991051Y-91011328D01*
X148115410Y-91025860D01*
X148202136Y-91046850D01*
X148251470Y-91074318D01*
X148293615Y-91116457D01*
X148298937Y-92737194D01*
X148299609Y-92941043D01*
X148300458Y-93216889D01*
X148300985Y-93457694D01*
X148301048Y-93665882D01*
X148300503Y-93843878D01*
X148299207Y-93994107D01*
X148297017Y-94118993D01*
X148293790Y-94220961D01*
X148289383Y-94302436D01*
X148283652Y-94365841D01*
X148276455Y-94413602D01*
X148267649Y-94448144D01*
X148257090Y-94471891D01*
X148244635Y-94487267D01*
X148230142Y-94496697D01*
X148213467Y-94502606D01*
X148194466Y-94507419D01*
X148127281Y-94510826D01*
X148061138Y-94486186D01*
X148015895Y-94436598D01*
X148014060Y-94431847D01*
X148009562Y-94408199D01*
X148005645Y-94366953D01*
X148002277Y-94305960D01*
X147999425Y-94223074D01*
X147997054Y-94116145D01*
X147995130Y-93983027D01*
X147993622Y-93821572D01*
X147992493Y-93629632D01*
X147991712Y-93405059D01*
X147991245Y-93145705D01*
X147991057Y-92849423D01*
X147990769Y-91310769D01*
X147904444Y-91310769D01*
X147883343Y-91310438D01*
X147825312Y-91306288D01*
X147787213Y-91298909D01*
X147785957Y-91298728D01*
X147782712Y-91301793D01*
X147779711Y-91311182D01*
X147776943Y-91328319D01*
X147774401Y-91354628D01*
X147772073Y-91391534D01*
X147769952Y-91440460D01*
X147768027Y-91502830D01*
X147766289Y-91580069D01*
X147764729Y-91673600D01*
X147763338Y-91784847D01*
X147762106Y-91915236D01*
X147761023Y-92066188D01*
X147760081Y-92239129D01*
X147759270Y-92435483D01*
X147758581Y-92656674D01*
X147758004Y-92904125D01*
X147757530Y-93179260D01*
X147757149Y-93483505D01*
X147756853Y-93818282D01*
X147756632Y-94185016D01*
X147756476Y-94585130D01*
X147756376Y-95020050D01*
X147756323Y-95491198D01*
X147756307Y-96000000D01*
X147756309Y-96191611D01*
X147756338Y-96686398D01*
X147756407Y-97144055D01*
X147756526Y-97566008D01*
X147756705Y-97953679D01*
X147756953Y-98308493D01*
X147757279Y-98631874D01*
X147757693Y-98925246D01*
X147758204Y-99190034D01*
X147758821Y-99427660D01*
X147759554Y-99639550D01*
X147760412Y-99827127D01*
X147761405Y-99991815D01*
X147762541Y-100135038D01*
X147763831Y-100258220D01*
X147765283Y-100362786D01*
X147766907Y-100450159D01*
X147768713Y-100521763D01*
X147770709Y-100579023D01*
X147772905Y-100623362D01*
X147775310Y-100656205D01*
X147777934Y-100678975D01*
X147780787Y-100693096D01*
X147783876Y-100699993D01*
X147787213Y-100701090D01*
X147796870Y-100698310D01*
X147843977Y-100691823D01*
X147904444Y-100689230D01*
X147990769Y-100689230D01*
X147991057Y-99775807D01*
X147991137Y-99672880D01*
X147991699Y-99461055D01*
X147992847Y-99284452D01*
X147994648Y-99140383D01*
X147997172Y-99026155D01*
X148000490Y-98939080D01*
X148004670Y-98876466D01*
X148009782Y-98835624D01*
X148015895Y-98813863D01*
X148055696Y-98768025D01*
X148120388Y-98740777D01*
X148194466Y-98743042D01*
X148217718Y-98749984D01*
X148238308Y-98760699D01*
X148255308Y-98778107D01*
X148269061Y-98805446D01*
X148279909Y-98845955D01*
X148288197Y-98902872D01*
X148294269Y-98979436D01*
X148298466Y-99078885D01*
X148301133Y-99204457D01*
X148302612Y-99359390D01*
X148303249Y-99546924D01*
X148303384Y-99770295D01*
X148303469Y-99915608D01*
X148303801Y-100087099D01*
X148304358Y-100242902D01*
X148305113Y-100379118D01*
X148306039Y-100491849D01*
X148307108Y-100577197D01*
X148308292Y-100631265D01*
X148309565Y-100650154D01*
X148325121Y-100648259D01*
X148370464Y-100640656D01*
X148431752Y-100629480D01*
X148496038Y-100617171D01*
X148550372Y-100606166D01*
X148581807Y-100598901D01*
X148587227Y-100596820D01*
X148597064Y-100587708D01*
X148604380Y-100568409D01*
X148609542Y-100534110D01*
X148612918Y-100479995D01*
X148614875Y-100401250D01*
X148615780Y-100293058D01*
X148616000Y-100150606D01*
X148616076Y-100050182D01*
X148616667Y-99931279D01*
X148618209Y-99842729D01*
X148621127Y-99779330D01*
X148625847Y-99735882D01*
X148632795Y-99707183D01*
X148642396Y-99688033D01*
X148655077Y-99673230D01*
X148682194Y-99652424D01*
X148747278Y-99633391D01*
X148814112Y-99644735D01*
X148868582Y-99685635D01*
X148871200Y-99689010D01*
X148884440Y-99709150D01*
X148894183Y-99733729D01*
X148900963Y-99768519D01*
X148905310Y-99819293D01*
X148907757Y-99891824D01*
X148908835Y-99991886D01*
X148909077Y-100125250D01*
X148909847Y-100246921D01*
X148912276Y-100357019D01*
X148916164Y-100441009D01*
X148921307Y-100494570D01*
X148927498Y-100513384D01*
X148946639Y-100510194D01*
X149000899Y-100494256D01*
X149078898Y-100467426D01*
X149173308Y-100432509D01*
X149276800Y-100392308D01*
X149382048Y-100349628D01*
X149481724Y-100307274D01*
X149568500Y-100268051D01*
X149788307Y-100164408D01*
X149788307Y-98960547D01*
X149788307Y-97756685D01*
X149836265Y-97708727D01*
X149841221Y-97703947D01*
X149905049Y-97667175D01*
X149972820Y-97666867D01*
X150036163Y-97703252D01*
X150081384Y-97745734D01*
X150081384Y-98867418D01*
X150081616Y-99088156D01*
X150082489Y-99321417D01*
X150083997Y-99521020D01*
X150086125Y-99686064D01*
X150088857Y-99815646D01*
X150092177Y-99908862D01*
X150096070Y-99964811D01*
X150100521Y-99982589D01*
X150117624Y-99972891D01*
X150161360Y-99944395D01*
X150223467Y-99902158D01*
X150296616Y-99851094D01*
X150390924Y-99782788D01*
X150724340Y-99511370D01*
X151028959Y-99214327D01*
X151303788Y-98893319D01*
X151547832Y-98550003D01*
X151760097Y-98186038D01*
X151939590Y-97803081D01*
X152085317Y-97402792D01*
X152196282Y-96986827D01*
X152271493Y-96556846D01*
X152278529Y-96490635D01*
X152287010Y-96360585D01*
X152292299Y-96207869D01*
X152294400Y-96042447D01*
X152293318Y-95874280D01*
X152289057Y-95713330D01*
X152281621Y-95569557D01*
X152271014Y-95452923D01*
X152269587Y-95441364D01*
X152200715Y-95034989D01*
X152097166Y-94635285D01*
X151960760Y-94246826D01*
X151793317Y-93874187D01*
X151596657Y-93521942D01*
X151372599Y-93194666D01*
X151275408Y-93066279D01*
X151269434Y-93487331D01*
X151267975Y-93585514D01*
X151265763Y-93701045D01*
X151262975Y-93786521D01*
X151259045Y-93847318D01*
X151253407Y-93888810D01*
X151245495Y-93916374D01*
X151234743Y-93935385D01*
X151220585Y-93951216D01*
X151207657Y-93962637D01*
X151143517Y-93990966D01*
X151074141Y-93987155D01*
X151013260Y-93951203D01*
X151006131Y-93943829D01*
X150995644Y-93930091D01*
X150987357Y-93911555D01*
X150980956Y-93883935D01*
X150976124Y-93842947D01*
X150972548Y-93784307D01*
X150969913Y-93703730D01*
X150967904Y-93596931D01*
X150966206Y-93459626D01*
X150964504Y-93287529D01*
X150963465Y-93125283D01*
X150963671Y-92962299D01*
X150965314Y-92826912D01*
X150968337Y-92721988D01*
X150972680Y-92650392D01*
X150978286Y-92614989D01*
X150985027Y-92599845D01*
X151028015Y-92546212D01*
X151085491Y-92513608D01*
X151144495Y-92510203D01*
X151176589Y-92526236D01*
X151234431Y-92572557D01*
X151307838Y-92644477D01*
X151393104Y-92738309D01*
X151486526Y-92850371D01*
X151696288Y-93129438D01*
X151931267Y-93496346D01*
X152131002Y-93877825D01*
X152296107Y-94275397D01*
X152427200Y-94690588D01*
X152524896Y-95124922D01*
X152589812Y-95579923D01*
X152592735Y-95619623D01*
X152595455Y-95711388D01*
X152595814Y-95829218D01*
X152594067Y-95965087D01*
X152590472Y-96110970D01*
X152585284Y-96258841D01*
X152578759Y-96400675D01*
X152571155Y-96528446D01*
X152562726Y-96634128D01*
X152553731Y-96709697D01*
X152537666Y-96805767D01*
X152441459Y-97250104D01*
X152312346Y-97673582D01*
X152149951Y-98076961D01*
X151953896Y-98460996D01*
X151723802Y-98826448D01*
X151459291Y-99174073D01*
X151159985Y-99504629D01*
X150992218Y-99667998D01*
X150657638Y-99953925D01*
X150303895Y-100206030D01*
X149930624Y-100424495D01*
X149537462Y-100609501D01*
X149124047Y-100761230D01*
X148690014Y-100879864D01*
X148235000Y-100965583D01*
X148207662Y-100969202D01*
X148102997Y-100978417D01*
X147970481Y-100985229D01*
X147818470Y-100989636D01*
X147655322Y-100991638D01*
X147489392Y-100991236D01*
X147329038Y-100988429D01*
X147182617Y-100983218D01*
X147058485Y-100975603D01*
X146965000Y-100965583D01*
X146793079Y-100937444D01*
X146346115Y-100839121D01*
X145918643Y-100707470D01*
X145511214Y-100542729D01*
X145124377Y-100345140D01*
X144758683Y-100114943D01*
X144414684Y-99852377D01*
X144260912Y-99718796D01*
X143941522Y-99405375D01*
X143655080Y-99070983D01*
X143401693Y-98715813D01*
X143181467Y-98340056D01*
X142994509Y-97943904D01*
X142840924Y-97527550D01*
X142720819Y-97091184D01*
X142634300Y-96635000D01*
X142623056Y-96532855D01*
X142614582Y-96396154D01*
X142609397Y-96237258D01*
X142607438Y-96064717D01*
X142608645Y-95887083D01*
X142612956Y-95712905D01*
X142620310Y-95550734D01*
X142630645Y-95409120D01*
X142643901Y-95296615D01*
X142656016Y-95221361D01*
X142746686Y-94785460D01*
X142869480Y-94370476D01*
X143025328Y-93973988D01*
X143215162Y-93593575D01*
X143439912Y-93226815D01*
X143445815Y-93218052D01*
X143542661Y-93078904D01*
X143641051Y-92945437D01*
X143737217Y-92822191D01*
X143827395Y-92713706D01*
X143907819Y-92624522D01*
X143974723Y-92559179D01*
X144024340Y-92522218D01*
X144059415Y-92512116D01*
X144112439Y-92514144D01*
X144135279Y-92520362D01*
X144157983Y-92529920D01*
X144176210Y-92545304D01*
X144190451Y-92570208D01*
X144201199Y-92608325D01*
X144208945Y-92663352D01*
X144214180Y-92738983D01*
X144217396Y-92838911D01*
X144219085Y-92966833D01*
X144219737Y-93126442D01*
X144219846Y-93321434D01*
X144219843Y-93388577D01*
X144219733Y-93561783D01*
X144219298Y-93701239D01*
X144218315Y-93810920D01*
X144216562Y-93894805D01*
X144213814Y-93956870D01*
X144209850Y-94001092D01*
X144204445Y-94031448D01*
X144197378Y-94051914D01*
X144188425Y-94066468D01*
X144177363Y-94079087D01*
X144165600Y-94090379D01*
X144104032Y-94120928D01*
X144037301Y-94116210D01*
X143974727Y-94076349D01*
X143926769Y-94028391D01*
X143926769Y-93545377D01*
X143926769Y-93062363D01*
X143817823Y-93207451D01*
X143796398Y-93236261D01*
X143586670Y-93550156D01*
X143399502Y-93889646D01*
X143238545Y-94246711D01*
X143107453Y-94613331D01*
X143009877Y-94981489D01*
X142981218Y-95128384D01*
X142945540Y-95369632D01*
X142919889Y-95623489D01*
X142904777Y-95880037D01*
X142900718Y-96129354D01*
X142908226Y-96361520D01*
X142927814Y-96566615D01*
X142944764Y-96681181D01*
X143032291Y-97113444D01*
X143154565Y-97528232D01*
X143311333Y-97925035D01*
X143502346Y-98303341D01*
X143727354Y-98662639D01*
X143986105Y-99002419D01*
X144278350Y-99322170D01*
X144322230Y-99365635D01*
X144610541Y-99626379D01*
X144913577Y-99857247D01*
X145238494Y-100063290D01*
X145592451Y-100249559D01*
X145869773Y-100371762D01*
X146211616Y-100492700D01*
X146566723Y-100585923D01*
X146941190Y-100652987D01*
X147341115Y-100695445D01*
X147443692Y-100703033D01*
X147443692Y-95995041D01*
X147443690Y-95810145D01*
X147443662Y-95315149D01*
X147443594Y-94857299D01*
X147443475Y-94435171D01*
X147443297Y-94047340D01*
X147443049Y-93692381D01*
X147442724Y-93368869D01*
X147442311Y-93075380D01*
X147441800Y-92810489D01*
X147441184Y-92572770D01*
X147440451Y-92360800D01*
X147439593Y-92173154D01*
X147438601Y-92008406D01*
X147437465Y-91865131D01*
X147436176Y-91741907D01*
X147434724Y-91637306D01*
X147433099Y-91549905D01*
X147431294Y-91478279D01*
X147429297Y-91421003D01*
X147427101Y-91376652D01*
X147424694Y-91343801D01*
X147422069Y-91321027D01*
X147419216Y-91306903D01*
X147416125Y-91300005D01*
X147412786Y-91298909D01*
X147403130Y-91301690D01*
X147356023Y-91308177D01*
X147295555Y-91310769D01*
X147209230Y-91310769D01*
X147209230Y-93448958D01*
X147209196Y-93622190D01*
X147208852Y-93997876D01*
X147208137Y-94334641D01*
X147207049Y-94632593D01*
X147205587Y-94891840D01*
X147203752Y-95112490D01*
X147201541Y-95294650D01*
X147198954Y-95438429D01*
X147195989Y-95543935D01*
X147192646Y-95611276D01*
X147188924Y-95640558D01*
X147148816Y-95704440D01*
X147092871Y-95740416D01*
X147030740Y-95746686D01*
X146971744Y-95722335D01*
X146925200Y-95666448D01*
X146922221Y-95658968D01*
X146918072Y-95640751D01*
X146914387Y-95612492D01*
X146911138Y-95572117D01*
X146908302Y-95517553D01*
X146905851Y-95446726D01*
X146903761Y-95357562D01*
X146902004Y-95247986D01*
X146900557Y-95115925D01*
X146899392Y-94959305D01*
X146898485Y-94776052D01*
X146897809Y-94564091D01*
X146897338Y-94321350D01*
X146897048Y-94045754D01*
X146896911Y-93735229D01*
X146896903Y-93387701D01*
X146897028Y-93038089D01*
X146897329Y-92717514D01*
X146897826Y-92432406D01*
X146898537Y-92180942D01*
X146899484Y-91961298D01*
X146900685Y-91771650D01*
X146902163Y-91610172D01*
X146903935Y-91475042D01*
X146906023Y-91364434D01*
X146908447Y-91276524D01*
X146911226Y-91209488D01*
X146914381Y-91161503D01*
X146917932Y-91130743D01*
X146921898Y-91115384D01*
X146928163Y-91103762D01*
X146949683Y-91074881D01*
X146979941Y-91052717D01*
X147023994Y-91036190D01*
X147086899Y-91024220D01*
X147173711Y-91015727D01*
X147289487Y-91009630D01*
X147439283Y-91004848D01*
X147628466Y-91001552D01*
X147828817Y-91003232D01*
G37*
G36*
X146732056Y-103892843D02*
G01*
X146814026Y-103893495D01*
X147098544Y-103904155D01*
X147309730Y-103924993D01*
X147434312Y-103954930D01*
X147457569Y-103962833D01*
X147564920Y-103981326D01*
X147745118Y-103997398D01*
X148003630Y-104011305D01*
X148345927Y-104023304D01*
X148777476Y-104033651D01*
X149303747Y-104042603D01*
X151032149Y-104067652D01*
X151047034Y-104269910D01*
X151047340Y-104273654D01*
X151068630Y-104368877D01*
X151121545Y-104508179D01*
X151210141Y-104699885D01*
X151338477Y-104952319D01*
X151510607Y-105273806D01*
X151730589Y-105672671D01*
X151741547Y-105692352D01*
X151916437Y-106008123D01*
X152074050Y-106295758D01*
X152208027Y-106543410D01*
X152312011Y-106739236D01*
X152379642Y-106871392D01*
X152404560Y-106928034D01*
X152382666Y-106987444D01*
X152309664Y-107073569D01*
X152289950Y-107092790D01*
X152253987Y-107145037D01*
X152230578Y-107222290D01*
X152217102Y-107343342D01*
X152210939Y-107526985D01*
X152209467Y-107792011D01*
X152209709Y-107921154D01*
X152212982Y-108148316D01*
X152222265Y-108303394D01*
X152240300Y-108405836D01*
X152269829Y-108475092D01*
X152313594Y-108530613D01*
X152335037Y-108551726D01*
X152363454Y-108578714D01*
X152381835Y-108606738D01*
X152385996Y-108645476D01*
X152371755Y-108704602D01*
X152334927Y-108793794D01*
X152271329Y-108922727D01*
X152176778Y-109101077D01*
X152047089Y-109338519D01*
X151878079Y-109644731D01*
X151665564Y-110029388D01*
X151587691Y-110171141D01*
X151395154Y-110529287D01*
X151249971Y-110813529D01*
X151148149Y-111032273D01*
X151085693Y-111193928D01*
X151058608Y-111306903D01*
X151032149Y-111532347D01*
X149303747Y-111557396D01*
X149087419Y-111560729D01*
X148598645Y-111570193D01*
X148202466Y-111581152D01*
X147893412Y-111593863D01*
X147666014Y-111608582D01*
X147514804Y-111625565D01*
X147434312Y-111645068D01*
X147389463Y-111659686D01*
X147224012Y-111685636D01*
X146977968Y-111701998D01*
X146664605Y-111707692D01*
X146611683Y-111707645D01*
X146354130Y-111704843D01*
X146170834Y-111695623D01*
X146039672Y-111677093D01*
X145938522Y-111646360D01*
X145845260Y-111600530D01*
X145799233Y-111572454D01*
X145687149Y-111482585D01*
X145631077Y-111403448D01*
X145581598Y-111346200D01*
X145746745Y-111346200D01*
X145747243Y-111349750D01*
X145793574Y-111402678D01*
X145892246Y-111471446D01*
X145940014Y-111492131D01*
X146102594Y-111527442D01*
X146327081Y-111550801D01*
X146587896Y-111562036D01*
X146859461Y-111560971D01*
X147116199Y-111547434D01*
X147332529Y-111521251D01*
X147482875Y-111482248D01*
X147531278Y-111465732D01*
X147619334Y-111447518D01*
X147743832Y-111433322D01*
X147915398Y-111422701D01*
X148144655Y-111415211D01*
X148442228Y-111410409D01*
X148818740Y-111407854D01*
X149284816Y-111407100D01*
X149716950Y-111405955D01*
X150137384Y-111401824D01*
X150469577Y-111394771D01*
X150710548Y-111384888D01*
X150857317Y-111372268D01*
X150906903Y-111357001D01*
X150901943Y-111352857D01*
X150820877Y-111340844D01*
X150641649Y-111330598D01*
X150365793Y-111322147D01*
X149994847Y-111315522D01*
X149530346Y-111310754D01*
X148973827Y-111307870D01*
X148326824Y-111306903D01*
X148155492Y-111306989D01*
X147667270Y-111308212D01*
X147213820Y-111310771D01*
X146804490Y-111314523D01*
X146448625Y-111319326D01*
X146155572Y-111325038D01*
X145934677Y-111331515D01*
X145795286Y-111338617D01*
X145746745Y-111346200D01*
X145581598Y-111346200D01*
X145567939Y-111330397D01*
X145414136Y-111280992D01*
X145011914Y-111197401D01*
X144441436Y-111011904D01*
X143945349Y-110759792D01*
X143522978Y-110440616D01*
X143173647Y-110053922D01*
X142896681Y-109599260D01*
X142869810Y-109543110D01*
X142764815Y-109294639D01*
X142674450Y-109039004D01*
X142615844Y-108823516D01*
X142571118Y-108629902D01*
X142521746Y-108451281D01*
X142689545Y-108451281D01*
X142722255Y-108664201D01*
X142728569Y-108701799D01*
X142797618Y-108978434D01*
X142904531Y-109287393D01*
X143032807Y-109585354D01*
X143165942Y-109828994D01*
X143337064Y-110055553D01*
X143577392Y-110310290D01*
X143841062Y-110542233D01*
X144093491Y-110718226D01*
X144190596Y-110770053D01*
X144455333Y-110885124D01*
X144760845Y-110992650D01*
X145066942Y-111079236D01*
X145333431Y-111131488D01*
X145596449Y-111166009D01*
X145596449Y-109808645D01*
X145596449Y-108451281D01*
X144142997Y-108451281D01*
X142689545Y-108451281D01*
X142521746Y-108451281D01*
X142516233Y-108431334D01*
X142466498Y-108286565D01*
X142456877Y-108261831D01*
X142407783Y-108042690D01*
X142394079Y-107799999D01*
X142540433Y-107799999D01*
X142540654Y-107810724D01*
X142546865Y-107836823D01*
X142569539Y-107857282D01*
X142619143Y-107872785D01*
X142706145Y-107884021D01*
X142841010Y-107891674D01*
X143034205Y-107896432D01*
X143296198Y-107898981D01*
X143637454Y-107900007D01*
X144068441Y-107900197D01*
X144231993Y-107900182D01*
X144630005Y-107899775D01*
X144941993Y-107898288D01*
X145178425Y-107895035D01*
X145349765Y-107889330D01*
X145466483Y-107880487D01*
X145539043Y-107867818D01*
X145577913Y-107850638D01*
X145593560Y-107828261D01*
X145596449Y-107799999D01*
X145596228Y-107789275D01*
X145590018Y-107763176D01*
X145567344Y-107742717D01*
X145517739Y-107727214D01*
X145430738Y-107715978D01*
X145295873Y-107708325D01*
X145102677Y-107703567D01*
X144840684Y-107701018D01*
X144499428Y-107699992D01*
X144068441Y-107699802D01*
X143904889Y-107699817D01*
X143506877Y-107700224D01*
X143194889Y-107701711D01*
X142958458Y-107704964D01*
X142787117Y-107710669D01*
X142670400Y-107719512D01*
X142597839Y-107732181D01*
X142558969Y-107749361D01*
X142543323Y-107771738D01*
X142540433Y-107799999D01*
X142394079Y-107799999D01*
X142393021Y-107781261D01*
X142412593Y-107523018D01*
X142417793Y-107502801D01*
X142540433Y-107502801D01*
X142548659Y-107507714D01*
X142634824Y-107519529D01*
X142806203Y-107530714D01*
X143052156Y-107540878D01*
X143362044Y-107549629D01*
X143725227Y-107556576D01*
X144068441Y-107560594D01*
X144131065Y-107561327D01*
X145721696Y-107574556D01*
X145721696Y-107799999D01*
X145721696Y-108025443D01*
X144131065Y-108038672D01*
X143960945Y-108040321D01*
X143571233Y-108046015D01*
X143228518Y-108053746D01*
X142943441Y-108063121D01*
X142726641Y-108073749D01*
X142588759Y-108085238D01*
X142540433Y-108097197D01*
X142540433Y-108097800D01*
X142541807Y-108153213D01*
X142552660Y-108197507D01*
X142583072Y-108231927D01*
X142643123Y-108257719D01*
X142742893Y-108276127D01*
X142892462Y-108288396D01*
X143101908Y-108295772D01*
X143381313Y-108299498D01*
X143740755Y-108300821D01*
X144142997Y-108300969D01*
X144190315Y-108300986D01*
X145779378Y-108300986D01*
X145888308Y-108185035D01*
X145936608Y-108116602D01*
X145994019Y-107939971D01*
X146003706Y-107737553D01*
X145966014Y-107547495D01*
X145881287Y-107407943D01*
X145861758Y-107390141D01*
X145825242Y-107363444D01*
X145777050Y-107342546D01*
X145706117Y-107326737D01*
X145601376Y-107315308D01*
X145451764Y-107307549D01*
X145246214Y-107302750D01*
X144973663Y-107300201D01*
X144623045Y-107299192D01*
X144183294Y-107299013D01*
X143740437Y-107299173D01*
X143380837Y-107300484D01*
X143101374Y-107304200D01*
X142891945Y-107311574D01*
X142742450Y-107323859D01*
X142642787Y-107342308D01*
X142582855Y-107368173D01*
X142552553Y-107402709D01*
X142541780Y-107447167D01*
X142540433Y-107502801D01*
X142417793Y-107502801D01*
X142466498Y-107313434D01*
X142512430Y-107181102D01*
X142521494Y-107148717D01*
X142689545Y-107148717D01*
X144142997Y-107148717D01*
X144183294Y-107148717D01*
X145596449Y-107148717D01*
X145596449Y-105796055D01*
X145596449Y-104443392D01*
X145746745Y-104443392D01*
X145746745Y-105771136D01*
X145746745Y-107098880D01*
X145947139Y-107279924D01*
X145994540Y-107323127D01*
X146081523Y-107413467D01*
X146127106Y-107499934D01*
X146144655Y-107617216D01*
X146147534Y-107799999D01*
X146147310Y-107880396D01*
X146140361Y-108033833D01*
X146113594Y-108135134D01*
X146053642Y-108218985D01*
X145947139Y-108320075D01*
X145746745Y-108501119D01*
X145746745Y-109828863D01*
X145746745Y-111156607D01*
X146471138Y-111156607D01*
X147195531Y-111156607D01*
X147197591Y-111152490D01*
X147625443Y-111152490D01*
X148326824Y-111153357D01*
X149291222Y-111154548D01*
X149572225Y-111154299D01*
X149946886Y-111151980D01*
X150279511Y-111147600D01*
X150558466Y-111141435D01*
X150772120Y-111133761D01*
X150908843Y-111124855D01*
X150957001Y-111114993D01*
X150951375Y-111109424D01*
X150874501Y-111080688D01*
X150718728Y-111036307D01*
X150498334Y-110979984D01*
X150227594Y-110915420D01*
X149920787Y-110846316D01*
X148884573Y-110619253D01*
X148255008Y-110885872D01*
X147625443Y-111152490D01*
X147197591Y-111152490D01*
X147238175Y-111071362D01*
X147399999Y-111071362D01*
X147415039Y-111070191D01*
X147504803Y-111040373D01*
X147661925Y-110980575D01*
X147870772Y-110896831D01*
X148115713Y-110795173D01*
X148831426Y-110493635D01*
X148838160Y-110477251D01*
X149008480Y-110477251D01*
X149059926Y-110495211D01*
X149194285Y-110531063D01*
X149395338Y-110580540D01*
X149647154Y-110639726D01*
X149933802Y-110704705D01*
X150204416Y-110765070D01*
X150469100Y-110824252D01*
X150687923Y-110873329D01*
X150843569Y-110908415D01*
X150918723Y-110925627D01*
X150943755Y-110923372D01*
X150995235Y-110884014D01*
X151066692Y-110792570D01*
X151164393Y-110639688D01*
X151294604Y-110416011D01*
X151463590Y-110112186D01*
X151607092Y-109851473D01*
X151748582Y-109595893D01*
X151870888Y-109376463D01*
X151964390Y-109210442D01*
X152019465Y-109115088D01*
X152117442Y-108952268D01*
X151944573Y-108952268D01*
X151850341Y-108956453D01*
X151626658Y-108981583D01*
X151353227Y-109024743D01*
X151059846Y-109080527D01*
X150776313Y-109143533D01*
X150532427Y-109208357D01*
X150477360Y-109225138D01*
X150072419Y-109376031D01*
X149739314Y-109557971D01*
X149453990Y-109783792D01*
X149399137Y-109838129D01*
X149270809Y-109985980D01*
X149153711Y-110145403D01*
X149061713Y-110294813D01*
X149008680Y-110412624D01*
X149008480Y-110477251D01*
X148838160Y-110477251D01*
X148884573Y-110364329D01*
X148926833Y-110261511D01*
X148979956Y-110153563D01*
X149153841Y-109909413D01*
X149389797Y-109667955D01*
X149664794Y-109451137D01*
X149955797Y-109280909D01*
X149998951Y-109260931D01*
X150238588Y-109164969D01*
X150514007Y-109072374D01*
X150773839Y-109000739D01*
X150843983Y-108984766D01*
X151132752Y-108926143D01*
X151448171Y-108870471D01*
X151733530Y-108827959D01*
X151848761Y-108812733D01*
X151944573Y-108798624D01*
X152013803Y-108788429D01*
X152087373Y-108772163D01*
X152074977Y-108762376D01*
X151982119Y-108757507D01*
X151931339Y-108757391D01*
X151714756Y-108768186D01*
X151434958Y-108793440D01*
X151118728Y-108829871D01*
X150792850Y-108874199D01*
X150484107Y-108923144D01*
X150219284Y-108973424D01*
X149807542Y-109075888D01*
X149207443Y-109287949D01*
X148682235Y-109557491D01*
X148234974Y-109882523D01*
X147868714Y-110261052D01*
X147586509Y-110691084D01*
X147561808Y-110738314D01*
X147479406Y-110899529D01*
X147421724Y-111018183D01*
X147399999Y-111071362D01*
X147238175Y-111071362D01*
X147377230Y-110793392D01*
X147553396Y-110478074D01*
X147845588Y-110077553D01*
X148191771Y-109730938D01*
X148597707Y-109435353D01*
X149069161Y-109187918D01*
X149611898Y-108985755D01*
X150231682Y-108825985D01*
X150934276Y-108705731D01*
X151725445Y-108622115D01*
X151931339Y-108605824D01*
X152168248Y-108587078D01*
X152000988Y-108420979D01*
X151833727Y-108254881D01*
X149554240Y-108335432D01*
X149162506Y-108349458D01*
X148720476Y-108365755D01*
X148318412Y-108381084D01*
X147966341Y-108395038D01*
X147674293Y-108407209D01*
X147452296Y-108417188D01*
X147310381Y-108424566D01*
X147258576Y-108428935D01*
X147245645Y-108471505D01*
X147213272Y-108599879D01*
X147164848Y-108801088D01*
X147103463Y-109062117D01*
X147032206Y-109369951D01*
X146954165Y-109711575D01*
X146665932Y-110981262D01*
X146444307Y-110981262D01*
X146222682Y-110981262D01*
X146247731Y-110355029D01*
X146253191Y-110172067D01*
X146258522Y-109895927D01*
X146263236Y-109550743D01*
X146267176Y-109152537D01*
X146270185Y-108717330D01*
X146272105Y-108261144D01*
X146272780Y-107799999D01*
X146272177Y-107364495D01*
X146270322Y-106907613D01*
X146267369Y-106470820D01*
X146263477Y-106070137D01*
X146258802Y-105721587D01*
X146253501Y-105441191D01*
X146247731Y-105244970D01*
X146222682Y-104618737D01*
X146445942Y-104618737D01*
X146669201Y-104618737D01*
X146954953Y-105887577D01*
X147025775Y-106200140D01*
X147097269Y-106511486D01*
X147159290Y-106777174D01*
X147208758Y-106984168D01*
X147242597Y-107119433D01*
X147257729Y-107169933D01*
X147294504Y-107173442D01*
X147422256Y-107180426D01*
X147631755Y-107190051D01*
X147912965Y-107201906D01*
X148255852Y-107215585D01*
X148650384Y-107230676D01*
X149086524Y-107246773D01*
X149554240Y-107263467D01*
X151833727Y-107343485D01*
X152001869Y-107177322D01*
X152170010Y-107011159D01*
X151726326Y-106977269D01*
X151494567Y-106956047D01*
X151094846Y-106906844D01*
X150679563Y-106842870D01*
X150277623Y-106769153D01*
X149917930Y-106690718D01*
X149629388Y-106612593D01*
X149409663Y-106539069D01*
X148861436Y-106304902D01*
X148392189Y-106019332D01*
X147992955Y-105675098D01*
X147654766Y-105264935D01*
X147368655Y-104781582D01*
X147241701Y-104529486D01*
X147399999Y-104529486D01*
X147401803Y-104536324D01*
X147434623Y-104609795D01*
X147500191Y-104742609D01*
X147587357Y-104912003D01*
X147679508Y-105074836D01*
X147969501Y-105466400D01*
X148331440Y-105806799D01*
X148768537Y-106097652D01*
X149284004Y-106340575D01*
X149881052Y-106537186D01*
X150562894Y-106689101D01*
X151332741Y-106797939D01*
X151511312Y-106815422D01*
X151744338Y-106833104D01*
X151936765Y-106841937D01*
X152059171Y-106840208D01*
X152094180Y-106830157D01*
X152047121Y-106811792D01*
X151912465Y-106787593D01*
X151696772Y-106759031D01*
X151504381Y-106733738D01*
X151027877Y-106650596D01*
X150585757Y-106544824D01*
X150199908Y-106422133D01*
X149892219Y-106288233D01*
X149750656Y-106205502D01*
X149487347Y-106011614D01*
X149246450Y-105786582D01*
X149051383Y-105553490D01*
X148925565Y-105335420D01*
X148851409Y-105155016D01*
X149006500Y-105155016D01*
X149041155Y-105262480D01*
X149122966Y-105409876D01*
X149239958Y-105576619D01*
X149380157Y-105742123D01*
X149583874Y-105926048D01*
X149947781Y-106154045D01*
X150397033Y-106343747D01*
X150926603Y-106493150D01*
X151531469Y-106600249D01*
X151598596Y-106608856D01*
X151792426Y-106629941D01*
X151943440Y-106640901D01*
X152023483Y-106639489D01*
X152030511Y-106634287D01*
X152025401Y-106577435D01*
X151977515Y-106455175D01*
X151884481Y-106262488D01*
X151743924Y-105994356D01*
X151553472Y-105645759D01*
X151548779Y-105637283D01*
X151370968Y-105318283D01*
X151233182Y-105077291D01*
X151128512Y-104904114D01*
X151050049Y-104788556D01*
X150990886Y-104720425D01*
X150944114Y-104689527D01*
X150902825Y-104685668D01*
X150816160Y-104700954D01*
X150642527Y-104735731D01*
X150419229Y-104783139D01*
X150164719Y-104838975D01*
X149897453Y-104899033D01*
X149635884Y-104959111D01*
X149398469Y-105015005D01*
X149203661Y-105062511D01*
X149069915Y-105097424D01*
X149015687Y-105115541D01*
X149006500Y-105155016D01*
X148851409Y-105155016D01*
X148828889Y-105100230D01*
X148114444Y-104802607D01*
X147970587Y-104743182D01*
X147744487Y-104652056D01*
X147563564Y-104582066D01*
X147443505Y-104539210D01*
X147399999Y-104529486D01*
X147241701Y-104529486D01*
X147200418Y-104447509D01*
X147625443Y-104447509D01*
X148255700Y-104714418D01*
X148885957Y-104981326D01*
X149921479Y-104752320D01*
X150029241Y-104728272D01*
X150325176Y-104659862D01*
X150580192Y-104597458D01*
X150780016Y-104544767D01*
X150902825Y-104507771D01*
X150910376Y-104505496D01*
X150957001Y-104483353D01*
X150933126Y-104476641D01*
X150821761Y-104467791D01*
X150629973Y-104460049D01*
X150369394Y-104453679D01*
X150051655Y-104448946D01*
X149688387Y-104446115D01*
X149291222Y-104445451D01*
X147625443Y-104447509D01*
X147200418Y-104447509D01*
X147198345Y-104443392D01*
X146472545Y-104443392D01*
X145746745Y-104443392D01*
X145596449Y-104443392D01*
X145479216Y-104443392D01*
X145402567Y-104448903D01*
X145206024Y-104484555D01*
X144963194Y-104545939D01*
X144703896Y-104624414D01*
X144457948Y-104711340D01*
X144255168Y-104798077D01*
X144217330Y-104817250D01*
X143928572Y-104999779D01*
X143634862Y-105239290D01*
X143369323Y-105506221D01*
X143165082Y-105771005D01*
X143143142Y-105806372D01*
X143010316Y-106061838D01*
X142884968Y-106363968D01*
X142783485Y-106669656D01*
X142722255Y-106935798D01*
X142689545Y-107148717D01*
X142521494Y-107148717D01*
X142567360Y-106984847D01*
X142615844Y-106776483D01*
X142626740Y-106728311D01*
X142695009Y-106498182D01*
X142790699Y-106239887D01*
X142896681Y-106000739D01*
X143064659Y-105703421D01*
X143387614Y-105292079D01*
X143783363Y-104948418D01*
X144252582Y-104671986D01*
X144795948Y-104462333D01*
X145414136Y-104319007D01*
X145479216Y-104298940D01*
X145560207Y-104273966D01*
X145578669Y-104253799D01*
X145746745Y-104253799D01*
X145752415Y-104256409D01*
X145832726Y-104263845D01*
X146000727Y-104270751D01*
X146247071Y-104276986D01*
X146472545Y-104280861D01*
X146562412Y-104282406D01*
X146937404Y-104286869D01*
X147362701Y-104290234D01*
X147399999Y-104290404D01*
X147828956Y-104292357D01*
X148326824Y-104293096D01*
X148540241Y-104293000D01*
X149158915Y-104291426D01*
X149291222Y-104290553D01*
X149686623Y-104287946D01*
X150121828Y-104282589D01*
X150462994Y-104275386D01*
X150708586Y-104266367D01*
X150857068Y-104255561D01*
X150906903Y-104242997D01*
X150869818Y-104229651D01*
X150736070Y-104216666D01*
X150507715Y-104206406D01*
X150187733Y-104198963D01*
X149779107Y-104194430D01*
X149284816Y-104192899D01*
X148927335Y-104192488D01*
X148529254Y-104190428D01*
X148212789Y-104186234D01*
X147967317Y-104179463D01*
X147782214Y-104169673D01*
X147646856Y-104156419D01*
X147550617Y-104139260D01*
X147482875Y-104117751D01*
X147422025Y-104097804D01*
X147237467Y-104064850D01*
X146998951Y-104044635D01*
X146732056Y-104036984D01*
X146462359Y-104041724D01*
X146215440Y-104058682D01*
X146016876Y-104087682D01*
X145892246Y-104128553D01*
X145880192Y-104135808D01*
X145785552Y-104204226D01*
X145746745Y-104253799D01*
X145578669Y-104253799D01*
X145631077Y-104196551D01*
X145642155Y-104172081D01*
X145721765Y-104085561D01*
X145845260Y-103999469D01*
X145861558Y-103990462D01*
X145954600Y-103947411D01*
X146059303Y-103918963D01*
X146197790Y-103902225D01*
X146392183Y-103894304D01*
X146664605Y-103892307D01*
X146732056Y-103892843D01*
G37*
%TD*%
M02*
