%TF.GenerationSoftware,KiCad,Pcbnew,9.0.6*%
%TF.CreationDate,2026-03-27T12:53:51-05:00*%
%TF.ProjectId,Custom Dev Board,43757374-6f6d-4204-9465-7620426f6172,rev?*%
%TF.SameCoordinates,Original*%
%TF.FileFunction,Paste,Top*%
%TF.FilePolarity,Positive*%
%FSLAX46Y46*%
G04 Gerber Fmt 4.6, Leading zero omitted, Abs format (unit mm)*
G04 Created by KiCad (PCBNEW 9.0.6) date 2026-03-27 12:53:51*
%MOMM*%
%LPD*%
G01*
G04 APERTURE LIST*
G04 Aperture macros list*
%AMRoundRect*
0 Rectangle with rounded corners*
0 $1 Rounding radius*
0 $2 $3 $4 $5 $6 $7 $8 $9 X,Y pos of 4 corners*
0 Add a 4 corners polygon primitive as box body*
4,1,4,$2,$3,$4,$5,$6,$7,$8,$9,$2,$3,0*
0 Add four circle primitives for the rounded corners*
1,1,$1+$1,$2,$3*
1,1,$1+$1,$4,$5*
1,1,$1+$1,$6,$7*
1,1,$1+$1,$8,$9*
0 Add four rect primitives between the rounded corners*
20,1,$1+$1,$2,$3,$4,$5,0*
20,1,$1+$1,$4,$5,$6,$7,0*
20,1,$1+$1,$6,$7,$8,$9,0*
20,1,$1+$1,$8,$9,$2,$3,0*%
G04 Aperture macros list end*
%ADD10R,0.600000X1.450000*%
%ADD11R,0.300000X1.450000*%
%ADD12RoundRect,0.135000X-0.185000X0.135000X-0.185000X-0.135000X0.185000X-0.135000X0.185000X0.135000X0*%
%ADD13RoundRect,0.140000X0.140000X0.170000X-0.140000X0.170000X-0.140000X-0.170000X0.140000X-0.170000X0*%
%ADD14RoundRect,0.225000X-0.250000X0.225000X-0.250000X-0.225000X0.250000X-0.225000X0.250000X0.225000X0*%
%ADD15RoundRect,0.140000X-0.140000X-0.170000X0.140000X-0.170000X0.140000X0.170000X-0.140000X0.170000X0*%
%ADD16RoundRect,0.225000X0.250000X-0.225000X0.250000X0.225000X-0.250000X0.225000X-0.250000X-0.225000X0*%
%ADD17RoundRect,0.162500X0.162500X-0.650000X0.162500X0.650000X-0.162500X0.650000X-0.162500X-0.650000X0*%
%ADD18RoundRect,0.200000X0.800000X-0.200000X0.800000X0.200000X-0.800000X0.200000X-0.800000X-0.200000X0*%
%ADD19RoundRect,0.140000X0.170000X-0.140000X0.170000X0.140000X-0.170000X0.140000X-0.170000X-0.140000X0*%
%ADD20RoundRect,0.135000X0.185000X-0.135000X0.185000X0.135000X-0.185000X0.135000X-0.185000X-0.135000X0*%
%ADD21RoundRect,0.050000X-0.050000X-0.387500X0.050000X-0.387500X0.050000X0.387500X-0.050000X0.387500X0*%
%ADD22RoundRect,0.050000X-0.387500X-0.050000X0.387500X-0.050000X0.387500X0.050000X-0.387500X0.050000X0*%
%ADD23RoundRect,0.249999X-0.395001X-0.395001X0.395001X-0.395001X0.395001X0.395001X-0.395001X0.395001X0*%
%ADD24RoundRect,0.250000X-0.450000X-0.350000X0.450000X-0.350000X0.450000X0.350000X-0.450000X0.350000X0*%
%ADD25RoundRect,0.375000X0.375000X-0.625000X0.375000X0.625000X-0.375000X0.625000X-0.375000X-0.625000X0*%
%ADD26RoundRect,0.500000X1.400000X-0.500000X1.400000X0.500000X-1.400000X0.500000X-1.400000X-0.500000X0*%
G04 APERTURE END LIST*
D10*
%TO.C,J1*%
X150520000Y-72895000D03*
X149720000Y-72895000D03*
D11*
X148520000Y-72895000D03*
X147520000Y-72895000D03*
X147020000Y-72895000D03*
X146020000Y-72895000D03*
D10*
X144820000Y-72895000D03*
X144020000Y-72895000D03*
X144020000Y-72895000D03*
X144820000Y-72895000D03*
D11*
X145520000Y-72895000D03*
X146520000Y-72895000D03*
X148020000Y-72895000D03*
X149020000Y-72895000D03*
D10*
X149720000Y-72895000D03*
X150520000Y-72895000D03*
%TD*%
D12*
%TO.C,R3*%
X146000000Y-77820000D03*
X146000000Y-76800000D03*
%TD*%
D13*
%TO.C,C11*%
X142640000Y-75600000D03*
X143600000Y-75600000D03*
%TD*%
%TO.C,C12*%
X142640000Y-76600000D03*
X143600000Y-76600000D03*
%TD*%
%TO.C,C10*%
X142600000Y-77600000D03*
X143560000Y-77600000D03*
%TD*%
D12*
%TO.C,R4*%
X147000000Y-77820000D03*
X147000000Y-76800000D03*
%TD*%
%TO.C,R2*%
X145000000Y-77820000D03*
X145000000Y-76800000D03*
%TD*%
D14*
%TO.C,C13*%
X150000000Y-76550000D03*
X150000000Y-75000000D03*
%TD*%
D15*
%TO.C,C17*%
X152160000Y-79400000D03*
X151200000Y-79400000D03*
%TD*%
D16*
%TO.C,C14*%
X151800000Y-77975000D03*
X151800000Y-76425000D03*
%TD*%
D12*
%TO.C,R1*%
X148400000Y-76800000D03*
X148400000Y-77820000D03*
%TD*%
D13*
%TO.C,C6*%
X151200000Y-80400000D03*
X152160000Y-80400000D03*
%TD*%
%TO.C,C4*%
X151200000Y-83400000D03*
X152160000Y-83400000D03*
%TD*%
%TO.C,C8*%
X151200000Y-85400000D03*
X152160000Y-85400000D03*
%TD*%
%TO.C,C7*%
X151200000Y-84400000D03*
X152160000Y-84400000D03*
%TD*%
%TO.C,C1*%
X151200000Y-86400000D03*
X152160000Y-86400000D03*
%TD*%
%TO.C,C2*%
X151200000Y-88400000D03*
X152160000Y-88400000D03*
%TD*%
%TO.C,C9*%
X151200000Y-87400000D03*
X152160000Y-87400000D03*
%TD*%
D17*
%TO.C,U3*%
X145295000Y-81012500D03*
X146565000Y-81012500D03*
X147835000Y-81012500D03*
X149105000Y-81012500D03*
X149105000Y-88187500D03*
X147835000Y-88187500D03*
X146565000Y-88187500D03*
X145295000Y-88187500D03*
%TD*%
D18*
%TO.C,SW1*%
X144000000Y-108700000D03*
X144000000Y-112900000D03*
%TD*%
D19*
%TO.C,C15*%
X146800000Y-102920000D03*
X146800000Y-103880000D03*
%TD*%
D12*
%TO.C,R5*%
X145200000Y-107310000D03*
X145200000Y-106290000D03*
%TD*%
D19*
%TO.C,C16*%
X144000000Y-106320000D03*
X144000000Y-107280000D03*
%TD*%
D20*
%TO.C,R6*%
X143000000Y-106290000D03*
X143000000Y-107310000D03*
%TD*%
D21*
%TO.C,U1*%
X144737500Y-92462500D03*
X145137500Y-92462500D03*
X145537500Y-92462500D03*
X145937500Y-92462500D03*
X146337500Y-92462500D03*
X146737500Y-92462500D03*
X147137500Y-92462500D03*
X147537500Y-92462500D03*
X147937500Y-92462500D03*
X148337500Y-92462500D03*
X148737500Y-92462500D03*
X149137500Y-92462500D03*
X149537500Y-92462500D03*
X149937500Y-92462500D03*
D22*
X150775000Y-93300000D03*
X150775000Y-93700000D03*
X150775000Y-94100000D03*
X150775000Y-94500000D03*
X150775000Y-94900000D03*
X150775000Y-95300000D03*
X150775000Y-95700000D03*
X150775000Y-96100000D03*
X150775000Y-96500000D03*
X150775000Y-96900000D03*
X150775000Y-97300000D03*
X150775000Y-97700000D03*
X150775000Y-98100000D03*
X150775000Y-98500000D03*
D21*
X149937500Y-99337500D03*
X149537500Y-99337500D03*
X149137500Y-99337500D03*
X148737500Y-99337500D03*
X148337500Y-99337500D03*
X147937500Y-99337500D03*
X147537500Y-99337500D03*
X147137500Y-99337500D03*
X146737500Y-99337500D03*
X146337500Y-99337500D03*
X145937500Y-99337500D03*
X145537500Y-99337500D03*
X145137500Y-99337500D03*
X144737500Y-99337500D03*
D22*
X143900000Y-98500000D03*
X143900000Y-98100000D03*
X143900000Y-97700000D03*
X143900000Y-97300000D03*
X143900000Y-96900000D03*
X143900000Y-96500000D03*
X143900000Y-96100000D03*
X143900000Y-95700000D03*
X143900000Y-95300000D03*
X143900000Y-94900000D03*
X143900000Y-94500000D03*
X143900000Y-94100000D03*
X143900000Y-93700000D03*
X143900000Y-93300000D03*
D23*
X148137500Y-96700000D03*
X148137500Y-95100000D03*
X146537500Y-96700000D03*
X146537500Y-95100000D03*
%TD*%
D24*
%TO.C,Y1*%
X142700000Y-104250000D03*
X144900000Y-104250000D03*
X144900000Y-102550000D03*
X142700000Y-102550000D03*
%TD*%
D20*
%TO.C,R7*%
X143600000Y-91710000D03*
X143600000Y-90690000D03*
%TD*%
D25*
%TO.C,U2*%
X147500000Y-112550000D03*
X149800000Y-112550000D03*
D26*
X149800000Y-106250000D03*
D25*
X152100000Y-112550000D03*
%TD*%
D13*
%TO.C,C5*%
X151200000Y-82400000D03*
X152160000Y-82400000D03*
%TD*%
%TO.C,C3*%
X151200000Y-81400000D03*
X152160000Y-81400000D03*
%TD*%
M02*
