%TF.GenerationSoftware,KiCad,Pcbnew,9.0.6*%
%TF.CreationDate,2026-03-27T12:53:51-05:00*%
%TF.ProjectId,Custom Dev Board,43757374-6f6d-4204-9465-7620426f6172,rev?*%
%TF.SameCoordinates,Original*%
%TF.FileFunction,Legend,Top*%
%TF.FilePolarity,Positive*%
%FSLAX46Y46*%
G04 Gerber Fmt 4.6, Leading zero omitted, Abs format (unit mm)*
G04 Created by KiCad (PCBNEW 9.0.6) date 2026-03-27 12:53:51*
%MOMM*%
%LPD*%
G01*
G04 APERTURE LIST*
%ADD10C,0.120000*%
G04 APERTURE END LIST*
D10*
%TO.C,J2*%
X137030000Y-69040000D02*
X137030000Y-117270000D01*
X137030000Y-69040000D02*
X139790000Y-69040000D01*
X137030000Y-117270000D02*
X139790000Y-117270000D01*
X139790000Y-69040000D02*
X139790000Y-117270000D01*
%TO.C,J1*%
X151970000Y-70750000D02*
X151970000Y-68750000D01*
X142570000Y-70750000D02*
X142570000Y-68750000D01*
%TO.C,R3*%
X146380000Y-77156359D02*
X146380000Y-77463641D01*
X145620000Y-77156359D02*
X145620000Y-77463641D01*
%TO.C,C11*%
X143227836Y-75240000D02*
X143012164Y-75240000D01*
X143227836Y-75960000D02*
X143012164Y-75960000D01*
%TO.C,C12*%
X143227836Y-76240000D02*
X143012164Y-76240000D01*
X143227836Y-76960000D02*
X143012164Y-76960000D01*
%TO.C,C10*%
X143187836Y-77240000D02*
X142972164Y-77240000D01*
X143187836Y-77960000D02*
X142972164Y-77960000D01*
%TO.C,R4*%
X147380000Y-77156359D02*
X147380000Y-77463641D01*
X146620000Y-77156359D02*
X146620000Y-77463641D01*
%TO.C,R2*%
X144620000Y-77156359D02*
X144620000Y-77463641D01*
X145380000Y-77156359D02*
X145380000Y-77463641D01*
%TO.C,C13*%
X150510000Y-75634420D02*
X150510000Y-75915580D01*
X149490000Y-75634420D02*
X149490000Y-75915580D01*
%TO.C,C17*%
X151572164Y-79760000D02*
X151787836Y-79760000D01*
X151572164Y-79040000D02*
X151787836Y-79040000D01*
%TO.C,C14*%
X152310000Y-77340580D02*
X152310000Y-77059420D01*
X151290000Y-77340580D02*
X151290000Y-77059420D01*
%TO.C,R1*%
X148020000Y-77156359D02*
X148020000Y-77463641D01*
X148780000Y-77156359D02*
X148780000Y-77463641D01*
%TO.C,C6*%
X151787836Y-80760000D02*
X151572164Y-80760000D01*
X151787836Y-80040000D02*
X151572164Y-80040000D01*
%TO.C,C4*%
X151787836Y-83760000D02*
X151572164Y-83760000D01*
X151787836Y-83040000D02*
X151572164Y-83040000D01*
%TO.C,C8*%
X151787836Y-85760000D02*
X151572164Y-85760000D01*
X151787836Y-85040000D02*
X151572164Y-85040000D01*
%TO.C,C7*%
X151787836Y-84760000D02*
X151572164Y-84760000D01*
X151787836Y-84040000D02*
X151572164Y-84040000D01*
%TO.C,C1*%
X151787836Y-86760000D02*
X151572164Y-86760000D01*
X151787836Y-86040000D02*
X151572164Y-86040000D01*
%TO.C,C2*%
X151787836Y-88760000D02*
X151572164Y-88760000D01*
X151787836Y-88040000D02*
X151572164Y-88040000D01*
%TO.C,C9*%
X151787836Y-87760000D02*
X151572164Y-87760000D01*
X151787836Y-87040000D02*
X151572164Y-87040000D01*
%TO.C,U3*%
X144700000Y-88190000D02*
X144230000Y-88530000D01*
X144230000Y-87850000D01*
X144700000Y-88190000D01*
G36*
X144700000Y-88190000D02*
G01*
X144230000Y-88530000D01*
X144230000Y-87850000D01*
X144700000Y-88190000D01*
G37*
X149960000Y-87360000D02*
X149690000Y-87360000D01*
X149960000Y-81840000D02*
X149960000Y-87360000D01*
X149690000Y-81840000D02*
X149960000Y-81840000D01*
X144710000Y-87360000D02*
X144440000Y-87360000D01*
X144440000Y-87360000D02*
X144440000Y-81840000D01*
X144440000Y-81840000D02*
X144710000Y-81840000D01*
%TO.C,SW1*%
X145570000Y-112870000D02*
X145270000Y-112870000D01*
X145570000Y-108730000D02*
X145570000Y-112870000D01*
X145270000Y-108730000D02*
X145570000Y-108730000D01*
X142730000Y-112870000D02*
X142430000Y-112870000D01*
X142430000Y-112870000D02*
X142430000Y-108730000D01*
X142430000Y-108730000D02*
X142730000Y-108730000D01*
%TO.C,C15*%
X147160000Y-103507836D02*
X147160000Y-103292164D01*
X146440000Y-103507836D02*
X146440000Y-103292164D01*
%TO.C,R5*%
X144820000Y-106646359D02*
X144820000Y-106953641D01*
X145580000Y-106646359D02*
X145580000Y-106953641D01*
%TO.C,C16*%
X144360000Y-106907836D02*
X144360000Y-106692164D01*
X143640000Y-106907836D02*
X143640000Y-106692164D01*
%TO.C,R6*%
X143380000Y-106953641D02*
X143380000Y-106646359D01*
X142620000Y-106953641D02*
X142620000Y-106646359D01*
%TO.C,U1*%
X143197500Y-93300000D02*
X142867500Y-93540000D01*
X142867500Y-93060000D01*
X143197500Y-93300000D01*
G36*
X143197500Y-93300000D02*
G01*
X142867500Y-93540000D01*
X142867500Y-93060000D01*
X143197500Y-93300000D01*
G37*
X150947500Y-99510000D02*
X150297500Y-99510000D01*
X150947500Y-98860000D02*
X150947500Y-99510000D01*
X150947500Y-92290000D02*
X150947500Y-92940000D01*
X150297500Y-92290000D02*
X150947500Y-92290000D01*
X144377500Y-99510000D02*
X143727500Y-99510000D01*
X143727500Y-99510000D02*
X143727500Y-98860000D01*
X143727500Y-92940000D02*
X143727500Y-92290000D01*
X143727500Y-92290000D02*
X144377500Y-92290000D01*
%TO.C,Y1*%
X141740000Y-101690000D02*
X141740000Y-105110000D01*
X141740000Y-105110000D02*
X145860000Y-105110000D01*
%TO.C,J4*%
X143240000Y-117230000D02*
X143240000Y-115850000D01*
X144620000Y-117230000D02*
X143240000Y-117230000D01*
X145890000Y-114470000D02*
X151080000Y-114470000D01*
X145890000Y-117230000D02*
X145890000Y-114470000D01*
X145890000Y-117230000D02*
X151080000Y-117230000D01*
X151080000Y-117230000D02*
X151080000Y-114470000D01*
%TO.C,R7*%
X143220000Y-91353641D02*
X143220000Y-91046359D01*
X143980000Y-91353641D02*
X143980000Y-91046359D01*
%TO.C,U2*%
X146390000Y-107490000D02*
X147650000Y-107490000D01*
X146390000Y-111250000D02*
X146390000Y-107490000D01*
X153210000Y-107490000D02*
X151950000Y-107490000D01*
X153210000Y-111250000D02*
X153210000Y-107490000D01*
X146490000Y-112530000D02*
X146160000Y-112770000D01*
X146160000Y-112290000D01*
X146490000Y-112530000D01*
G36*
X146490000Y-112530000D02*
G01*
X146160000Y-112770000D01*
X146160000Y-112290000D01*
X146490000Y-112530000D01*
G37*
%TO.C,C5*%
X151787836Y-82760000D02*
X151572164Y-82760000D01*
X151787836Y-82040000D02*
X151572164Y-82040000D01*
%TO.C,C3*%
X151787836Y-81760000D02*
X151572164Y-81760000D01*
X151787836Y-81040000D02*
X151572164Y-81040000D01*
%TO.C,J3*%
X157570000Y-69040000D02*
X157570000Y-117270000D01*
X154810000Y-117270000D02*
X157570000Y-117270000D01*
X154810000Y-69040000D02*
X157570000Y-69040000D01*
X154810000Y-69040000D02*
X154810000Y-117270000D01*
%TD*%
M02*
